<svg xmlns="http://www.w3.org/2000/svg" width="68" height="68" viewBox="0 0 68 68">
  <g id="Button_-_navigation" data-name="Button - navigation" transform="translate(0 -0.197)">
    <g id="Rectangle">
      <rect id="Rectangle-2" data-name="Rectangle" width="68" height="68" rx="34" transform="translate(0 0.197)" fill="#fff"/>
      <g id="Rectangle-3" data-name="Rectangle" transform="translate(0 0.197)" fill="none" stroke="#414141" stroke-miterlimit="10" stroke-width="2">
        <rect width="68" height="68" rx="34" stroke="none"/>
        <rect x="1" y="1" width="66" height="66" rx="33" fill="none"/>
      </g>
    </g>
    <path id="Path" d="M41.125,13.125H2.987L14.619,1.494A.875.875,0,0,0,13.381.256L.256,13.381a.875.875,0,0,0,0,1.237L13.381,27.744a.875.875,0,1,0,1.237-1.237L2.987,14.875H41.125a.875.875,0,1,0,0-1.75Z" transform="translate(13 21)" fill="#414141" stroke="#414141" stroke-miterlimit="10" stroke-width="2"/>
  </g>
</svg>
