<svg xmlns="http://www.w3.org/2000/svg" width="68" height="68" viewBox="0 0 68 68"><g transform="translate(0 -0.197)"><rect width="68" height="68" rx="34" transform="translate(0 0.197)" fill="#fff"/><g transform="translate(0 0.197)" fill="none" stroke="#414141" stroke-miterlimit="10" stroke-width="2"><rect width="68" height="68" rx="34" stroke="none"/><rect x="1" y="1" width="66" height="66" rx="33" fill="none"/></g><path d="M5.4,35,2.817,5.3H.675a.675.675,0,0,1,0-1.35H9.583V3.374A3.375,3.375,0,0,1,12.957,0h5.1a3.375,3.375,0,0,1,3.374,3.374v.581h8.936a.675.675,0,1,1,0,1.35H28.363L25.767,35Z" transform="translate(18 17)" fill="#414141" stroke="#414141" stroke-miterlimit="10" stroke-width="1"/></g></svg>