<svg xmlns="http://www.w3.org/2000/svg" width="68" height="68" viewBox="0 0 68 68">
  <g id="Button_-_navigation" data-name="Button - navigation" transform="translate(0 -0.197)">
    <g id="Rectangle">
      <rect id="Rectangle-2" data-name="Rectangle" width="68" height="68" rx="34" transform="translate(0 0.197)" fill="#fff"/>
      <g id="Rectangle-3" data-name="Rectangle" transform="translate(0 0.197)" fill="none" stroke="#414141" stroke-miterlimit="10" stroke-width="2">
        <rect width="68" height="68" rx="34" stroke="none"/>
        <rect x="1" y="1" width="66" height="66" rx="33" fill="none"/>
      </g>
    </g>
    <path id="Shape" d="M15.665,38a1.2,1.2,0,0,1-1.176-.958L13.5,32.272a14.155,14.155,0,0,1-3.77-2.083L4.9,31.892a1.206,1.206,0,0,1-1.439-.533L.51,26.247a1.2,1.2,0,0,1,.241-1.5l3.778-3.36,0-.023a16.111,16.111,0,0,1-.166-2.152,14.007,14.007,0,0,1,.124-1.865L.419,13.873a1.2,1.2,0,0,1-.258-1.513L3.112,7.248a1.2,1.2,0,0,1,1.418-.54l5,1.659.045,0A14.666,14.666,0,0,1,12.7,6.473a.759.759,0,0,0,.086-.153l1-5.34A1.2,1.2,0,0,1,14.964,0h5.9a1.2,1.2,0,0,1,1.176.958l1.078,5.224a.158.158,0,0,0,.008.018,14.111,14.111,0,0,1,3.217,1.716,1.938,1.938,0,0,0,.225-.022l5.059-1.787a1.2,1.2,0,0,1,1.438.533l2.952,5.113a1.2,1.2,0,0,1-.242,1.5l-3.86,3.434a14.579,14.579,0,0,1,.233,2.529,14.16,14.16,0,0,1-.075,1.456l4.036,3.457a1.2,1.2,0,0,1,.258,1.514l-2.951,5.112a1.2,1.2,0,0,1-1.417.54l-4.674-1.549a13.972,13.972,0,0,1-3.644,2.265l-.935,5.01a1.2,1.2,0,0,1-1.181.98Z" transform="translate(16 15)" fill="#414141"/>
  </g>
</svg>
