<?xml version="1.0" encoding="utf-8"?>
<!-- Generator: Adobe Illustrator 17.0.0, SVG Export Plug-In . SVG Version: 6.00 Build 0)  -->
<!DOCTYPE svg PUBLIC "-//W3C//DTD SVG 1.1//EN" "http://www.w3.org/Graphics/SVG/1.1/DTD/svg11.dtd">
<svg version="1.1" id="Layer_1" xmlns="http://www.w3.org/2000/svg" xmlns:xlink="http://www.w3.org/1999/xlink" x="0px" y="0px"
	 width="494.482px" height="286.598px" viewBox="0 0 494.482 286.598" enable-background="new 0 0 494.482 286.598"
	 xml:space="preserve">
<g>
	<defs>
		<path id="SVGID_1_" d="M384.64,276.794c0.216,0,0.432-0.216,0.432-0.432L385,268.91v-1.368c0-3.96,2.088-5.76,4.032-5.76
			c1.62,0,2.844,1.296,2.844,3.312v3.816l-0.108,7.452c0,0.216,0.216,0.432,0.432,0.432h4.608c0.216,0,0.432-0.216,0.432-0.432
			l-0.144-7.452v-3.888c0-4.536-2.484-7.2-6.408-7.2c-2.592,0-4.716,1.152-5.976,2.772l0.072-1.908
			c0.036-0.216-0.18-0.432-0.396-0.432h-4.356c-0.216,0-0.432,0.216-0.432,0.432l0.108,9.216l-0.18,8.46
			c0,0.216,0.216,0.432,0.432,0.432H384.64z M363.184,267.614c0-4.176,1.26-6.192,3.996-6.228c2.664,0,3.96,2.016,3.96,6.192
			c0,4.248-1.26,6.084-3.924,6.084C364.516,273.662,363.184,271.79,363.184,267.614z M376.684,267.47
			c0-5.904-3.42-9.684-9.468-9.684c-6.048,0-9.54,3.888-9.54,9.792c0,5.904,3.492,9.684,9.54,9.684
			C373.264,277.262,376.684,273.374,376.684,267.47z M355.372,271.142c0-7.884-12.132-4.284-12.132-7.812
			c0-1.584,1.116-2.232,2.88-2.232c2.16,0,3.132,0.936,3.456,2.448c0.072,0.252,0.252,0.432,0.54,0.432h4.14
			c0.216,0,0.432-0.216,0.396-0.432c-0.396-3.816-3.636-5.724-8.46-5.724c-5.004,0-8.1,2.052-8.1,5.904
			c0,7.776,12.132,4.356,12.132,7.884c0,1.44-1.152,2.268-3.276,2.268c-2.484,0-3.852-0.864-4.032-2.88
			c0-0.252-0.216-0.432-0.468-0.432h-4.356c-0.216,0-0.432,0.216-0.432,0.432c0.252,4.068,4.032,6.228,9.18,6.228
			C351.7,277.226,355.372,275.03,355.372,271.142z M328.192,276.794c0.216,0,0.432-0.216,0.432-0.432l-0.036-7.812
			c-0.036-4.248,2.808-6.372,6.624-6.372c0.18,0,0.396,0,0.576,0.036c0.252,0,0.432-0.18,0.432-0.396v-3.132
			c0-0.252-0.216-0.468-0.432-0.504c-0.216-0.036-0.468-0.072-0.72-0.072c-2.7,0-5.184,1.08-6.624,3.276l0.108-2.7
			c0.036-0.216-0.18-0.432-0.396-0.432h-4.572c-0.216,0-0.432,0.216-0.432,0.432l0.18,8.82l-0.18,8.856
			c0,0.216,0.216,0.432,0.432,0.432H328.192z M314.692,265.202h-7.596c0.432-2.556,1.728-3.852,3.888-3.852
			C313.36,261.35,314.476,263.222,314.692,265.202z M315.268,270.53c-0.288,0-0.504,0.18-0.576,0.432
			c-0.504,1.908-1.764,2.7-3.564,2.7c-2.592,0-3.96-1.548-4.176-5.04h13.14c0.216,0,0.432-0.216,0.432-0.432
			c-0.144-6.408-3.528-10.404-9.576-10.404c-5.904,0-9.432,3.888-9.432,9.792c0,5.616,3.348,9.684,9.54,9.684
			c5.148,0,8.352-2.952,8.892-6.3c0.036-0.216-0.18-0.432-0.396-0.432H315.268z M294.748,259.802c0,3.024-1.8,4.248-3.924,4.248
			h-4.788l0.18-8.46h4.464C293.272,255.59,294.748,256.922,294.748,259.802z M300.04,259.694c0-5.364-3.492-8.1-9.576-8.1h-9.432
			c-0.216,0-0.432,0.216-0.432,0.432l0.252,12.168l-0.252,12.168c0,0.216,0.216,0.432,0.432,0.432h4.824
			c0.216,0,0.432-0.216,0.432-0.432l-0.18-8.316h4.32C296.44,268.046,300.04,264.986,300.04,259.694z M264.436,265.202h-7.596
			c0.432-2.556,1.728-3.852,3.888-3.852C263.104,261.35,264.22,263.222,264.436,265.202z M265.012,270.53
			c-0.288,0-0.504,0.18-0.576,0.432c-0.504,1.908-1.764,2.7-3.564,2.7c-2.592,0-3.96-1.548-4.176-5.04h13.14
			c0.216,0,0.432-0.216,0.432-0.432c-0.144-6.408-3.528-10.404-9.576-10.404c-5.904,0-9.432,3.888-9.432,9.792
			c0,5.616,3.348,9.684,9.54,9.684c5.148,0,8.352-2.952,8.892-6.3c0.036-0.216-0.18-0.432-0.396-0.432H265.012z M247.876,276.794
			c0.216,0,0.432-0.216,0.432-0.432l-0.216-12.168l0.216-12.168c0-0.216-0.216-0.432-0.432-0.432h-4.572
			c-0.216,0-0.432,0.216-0.432,0.432l0.216,12.168l-0.216,12.168c0,0.216,0.216,0.432,0.432,0.432H247.876z M226.348,267.326
			c0.036-3.816,1.44-5.76,4.068-5.76c2.592-0.036,4.032,2.052,4.032,6.12c0,3.744-1.404,5.868-4.14,5.796
			C227.716,273.446,226.312,271.286,226.348,267.326z M239.956,267.47c0-5.4-2.772-9.576-8.028-9.576
			c-2.34,0-4.176,0.936-5.472,2.484l0.108-8.352c0-0.216-0.216-0.432-0.432-0.432h-4.644c-0.216,0-0.432,0.216-0.432,0.432
			l0.18,12.168l-0.18,12.168c0,0.216,0.216,0.432,0.432,0.432h4.644c0.216,0,0.432-0.216,0.396-0.432l-0.072-1.548
			c1.26,1.512,3.06,2.34,5.364,2.34C236.86,277.154,239.956,272.834,239.956,267.47z M217.42,276.794
			c0.216,0,0.432-0.216,0.432-0.432l-0.18-8.82l0.18-8.856c0-0.216-0.216-0.432-0.432-0.432h-4.608
			c-0.216,0-0.432,0.216-0.396,0.432l0.072,1.548c-1.26-1.512-3.06-2.34-5.364-2.34c-5.04,0-8.136,4.32-8.136,9.684
			c0,5.4,2.772,9.576,8.028,9.576c2.34,0,4.176-0.936,5.472-2.52l-0.072,1.728c0,0.216,0.216,0.432,0.432,0.432H217.42z
			 M204.496,267.29c0-3.816,1.404-5.868,4.14-5.796c2.592,0.036,3.996,2.196,3.96,6.156c-0.036,3.924-1.44,5.904-4.068,5.904
			C205.936,273.59,204.496,271.466,204.496,267.29z M197.368,273.338c0-0.216-0.216-0.36-0.432-0.324
			c-0.504,0.144-1.152,0.288-1.98,0.288c-1.188,0-1.98-0.504-1.98-2.088l-0.036-9.144h4.032c0.216,0,0.432-0.216,0.432-0.432v-2.952
			c0-0.216-0.216-0.432-0.432-0.432h-3.996l0.072-4.212c0-0.216-0.216-0.432-0.432-0.432h-4.644c-0.216,0-0.432,0.216-0.432,0.432
			l0.036,4.212h-1.944c-0.216,0-0.432,0.216-0.432,0.432v2.952c0,0.216,0.216,0.432,0.432,0.432h1.98l-0.036,9.288
			c0,4.212,2.988,5.796,6.12,5.796c1.116,0,2.232-0.252,3.276-0.576c0.216-0.072,0.396-0.324,0.396-0.576V273.338z M170.44,267.614
			c0-4.176,1.26-6.192,3.996-6.228c2.664,0,3.96,2.016,3.96,6.192c0,4.248-1.26,6.084-3.924,6.084
			C171.772,273.662,170.44,271.79,170.44,267.614z M183.94,267.47c0-5.904-3.42-9.684-9.468-9.684s-9.54,3.888-9.54,9.792
			c0,5.904,3.492,9.684,9.54,9.684S183.94,273.374,183.94,267.47z M144.952,260.27l-0.072-1.44l9.864,17.604
			c0.144,0.216,0.396,0.36,0.648,0.36h6.048c0.216,0,0.432-0.216,0.432-0.432l-0.216-12.168l0.216-12.168
			c0-0.216-0.216-0.432-0.432-0.432h-4.32c-0.216,0-0.432,0.216-0.432,0.432v10.116l0.18,7.128v0.432l-10.008-17.748
			c-0.144-0.216-0.396-0.36-0.648-0.36h-5.832c-0.216,0-0.432,0.216-0.432,0.432l0.216,12.168l-0.216,12.168
			c0,0.216,0.216,0.432,0.432,0.432h4.32c0.216,0,0.432-0.216,0.432-0.432v-8.892L144.952,260.27z M129.004,267.938
			c0.216,0,0.432-0.216,0.432-0.432v-2.88c0-0.216-0.216-0.432-0.432-0.432h-20.376c-0.216,0-0.432,0.216-0.432,0.432v2.88
			c0,0.216,0.216,0.432,0.432,0.432H129.004z M294.842,100.774c0,2.52-0.8,4.88-2.4,7.08c-1.6,2.2-3.78,3.92-6.54,5.16l-0.3-0.96
			c1.72-0.88,3.2-2.02,4.44-3.42s1.92-2.96,2.04-4.68c-0.52,0.52-1.1,0.94-1.74,1.26c-0.64,0.32-1.3,0.48-1.98,0.48
			c-2.32,0-3.48-1.08-3.48-3.24c0-1.08,0.27-2.08,0.81-3c0.54-0.92,1.26-1.65,2.16-2.19c0.9-0.54,1.91-0.81,3.03-0.81
			c1.28,0,2.26,0.35,2.94,1.05C294.502,98.204,294.842,99.294,294.842,100.774z M283.022,100.774c0,2.52-0.8,4.88-2.4,7.08
			c-1.6,2.2-3.78,3.92-6.54,5.16l-0.3-0.96c1.76-0.88,3.26-2.02,4.5-3.42s1.92-2.96,2.04-4.68c-0.52,0.52-1.1,0.94-1.74,1.26
			c-0.64,0.32-1.32,0.48-2.04,0.48c-2.32,0-3.48-1.08-3.48-3.24c0-1.08,0.27-2.08,0.81-3c0.54-0.92,1.27-1.65,2.19-2.19
			c0.92-0.54,1.92-0.81,3-0.81c1.28,0,2.26,0.35,2.94,1.05C282.682,98.204,283.022,99.294,283.022,100.774z M239.822,138.634
			c0.68,0,1.48-0.44,2.4-1.32c0.92-0.88,1.9-2.19,2.94-3.93c1.04-1.74,2.04-3.88,3-6.42c0.96-2.54,1.82-5.45,2.58-8.73l-0.9,6.48
			c-1.32,3.84-2.63,7.02-3.93,9.54c-1.3,2.52-2.72,4.38-4.26,5.58c-1.54,1.2-3.37,1.8-5.49,1.8c-2,0-3.69-0.67-5.07-2.01
			c-1.38-1.34-2.07-3.47-2.07-6.39c0-1.84,0.29-3.85,0.87-6.03c0.58-2.18,1.44-4.33,2.58-6.45c1.14-2.12,2.52-4.08,4.14-5.88
			c1.62-1.8,3.47-3.24,5.55-4.32c2.08-1.08,4.36-1.62,6.84-1.62c1.28,0,2.23,0.29,2.85,0.87c0.62,0.58,0.99,1.39,1.11,2.43
			l-0.48,1.2c-0.16-1.04-0.44-1.82-0.84-2.34c-0.4-0.52-1-0.78-1.8-0.78c-1.28,0-2.62,0.71-4.02,2.13c-1.4,1.42-2.7,3.31-3.9,5.67
			c-1.2,2.36-2.17,4.97-2.91,7.83c-0.74,2.86-1.11,5.71-1.11,8.55c0,1.36,0.15,2.39,0.45,3.09
			C238.652,138.284,239.142,138.634,239.822,138.634z M254.222,135.694c-0.36,0.96-0.45,1.7-0.27,2.22
			c0.18,0.52,0.55,0.78,1.11,0.78c0.52,0,1.09-0.31,1.71-0.93s1.27-1.89,1.95-3.81l1.02-2.88h1.14l-1.44,4.38
			c-0.84,2.48-2.01,4.13-3.51,4.95c-1.5,0.82-2.97,1.23-4.41,1.23c-2.48,0-4.06-0.92-4.74-2.76c-0.36-0.76-0.52-1.71-0.48-2.85
			s0.28-2.45,0.72-3.93l8.34-31.32c0.4-1.36,0.36-2.36-0.12-3s-1.7-0.96-3.66-0.96l0.36-1.26c2.84-0.04,5.38-0.27,7.62-0.69
			c2.24-0.42,4.38-1.01,6.42-1.77L254.222,135.694z M202.802,130.654c1.56-4.36,3.01-7.95,4.35-10.77c1.34-2.82,2.66-5.03,3.96-6.63
			c1.3-1.6,2.63-2.72,3.99-3.36c1.36-0.64,2.82-0.96,4.38-0.96c1.92,0,3.3,0.42,4.14,1.26s1.26,1.95,1.26,3.33s-0.26,2.87-0.78,4.47
			l-5.88,17.7c-0.4,1.12-0.5,1.9-0.3,2.34c0.2,0.44,0.56,0.66,1.08,0.66c0.52,0,1.1-0.29,1.74-0.87c0.64-0.58,1.32-1.87,2.04-3.87
			l1.08-2.88h1.14l-1.5,4.38c-0.88,2.52-2.08,4.18-3.6,4.98c-1.52,0.8-3,1.2-4.44,1.2c-2.28,0-3.88-0.66-4.8-1.98
			c-0.52-0.8-0.77-1.81-0.75-3.03c0.02-1.22,0.33-2.73,0.93-4.53l5.4-16.2c0.24-0.64,0.4-1.26,0.48-1.86c0.08-0.6,0.06-1.1-0.06-1.5
			s-0.46-0.6-1.02-0.6c-0.96,0-2.06,0.76-3.3,2.28c-1.24,1.52-2.53,3.56-3.87,6.12c-1.34,2.56-2.63,5.46-3.87,8.7
			c-1.24,3.24-2.34,6.58-3.3,10.02L202.802,130.654z M200.882,140.794h-8.46l7.26-25.92c0.2-0.56,0.33-1.07,0.39-1.53
			c0.06-0.46,0.01-0.82-0.15-1.08s-0.46-0.39-0.9-0.39c-0.72,0-1.37,0.33-1.95,0.99c-0.58,0.66-1.21,1.91-1.89,3.75l-1.14,3.06
			h-1.14l1.62-4.56c0.8-2.28,1.85-3.88,3.15-4.8c1.3-0.92,2.83-1.38,4.59-1.38c1.92,0,3.26,0.43,4.02,1.29
			c0.76,0.86,1.14,1.94,1.14,3.24c0,1.3-0.16,2.59-0.48,3.87L200.882,140.794z M181.022,135.694c-0.28,1-0.4,1.75-0.36,2.25
			c0.04,0.5,0.38,0.75,1.02,0.75c0.72,0,1.39-0.35,2.01-1.05c0.62-0.7,1.23-1.93,1.83-3.69l1.14-3.06h1.14l-1.62,4.56
			c-0.8,2.36-1.94,3.98-3.42,4.86c-1.48,0.88-3.02,1.32-4.62,1.32c-1.08,0-1.99-0.18-2.73-0.54c-0.74-0.36-1.31-0.86-1.71-1.5
			c-0.4-0.76-0.57-1.67-0.51-2.73c0.06-1.06,0.25-2.27,0.57-3.63l6.06-23.46c1.64-0.04,3.19-0.12,4.65-0.24
			c1.46-0.12,2.81-0.32,4.05-0.6L181.022,135.694z M178.082,119.734c-1.48,4.4-2.9,8.03-4.26,10.89c-1.36,2.86-2.69,5.08-3.99,6.66
			c-1.3,1.58-2.63,2.7-3.99,3.36c-1.36,0.66-2.8,0.99-4.32,0.99c-2.52,0-4.16-0.8-4.92-2.4c-0.76-1.6-0.66-3.82,0.3-6.66l5.82-17.7
			c0.4-1.16,0.49-1.95,0.27-2.37c-0.22-0.42-0.57-0.63-1.05-0.63c-0.52,0-1.1,0.29-1.74,0.87c-0.64,0.58-1.32,1.87-2.04,3.87
			l-1.08,2.88h-1.14l1.5-4.38c0.88-2.52,2.08-4.18,3.6-4.98c1.52-0.8,3-1.2,4.44-1.2c1.8,0,3.14,0.39,4.02,1.17
			c0.88,0.78,1.36,1.88,1.44,3.3c0.08,1.42-0.2,3.11-0.84,5.07l-5.4,16.2c-0.88,2.64-0.68,3.96,0.6,3.96c0.96,0,2.06-0.77,3.3-2.31
			c1.24-1.54,2.53-3.62,3.87-6.24c1.34-2.62,2.63-5.59,3.87-8.91s2.32-6.76,3.24-10.32L178.082,119.734z M158.102,94.954
			c-0.64,0-1.22,0.11-1.74,0.33c-0.52,0.22-1,0.51-1.44,0.87c-0.76,0.68-1.42,1.81-1.98,3.39s-1.12,3.45-1.68,5.61l-12.36,46.08
			c-1.68,0.04-3.22,0.12-4.62,0.24s-2.76,0.32-4.08,0.6l11.22-41.76c0.88-3.4,1.89-6.21,3.03-8.43c1.14-2.22,2.49-3.97,4.05-5.25
			c1.16-0.92,2.45-1.61,3.87-2.07s2.95-0.69,4.59-0.69c2.52,0,4.47,0.52,5.85,1.56s2.07,2.44,2.07,4.2c0,1.24-0.51,2.42-1.53,3.54
			c-1.02,1.12-2.35,1.68-3.99,1.68c-1.16,0-2.09-0.28-2.79-0.84c-0.7-0.56-1.05-1.36-1.05-2.4c0-1.32,0.41-2.5,1.23-3.54
			c0.82-1.04,1.95-1.82,3.39-2.34c-0.2-0.2-0.47-0.38-0.81-0.54S158.582,94.954,158.102,94.954z M136.202,110.974l0.36-1.2h19.86
			l-0.36,1.2H136.202z M90.542,123.754l0.3-1.2h2.7c2.64,0,4.87-0.49,6.69-1.47c1.82-0.98,3.28-2.27,4.38-3.87
			c1.1-1.6,1.89-3.37,2.37-5.31c0.48-1.94,0.72-3.89,0.72-5.85c0-2.12-0.45-3.74-1.35-4.86c-0.9-1.12-2.39-1.68-4.47-1.68
			c-1.24,0-2.05,0.34-2.43,1.02c-0.38,0.68-0.85,2.06-1.41,4.14l-7.92,29.76c-0.28,1.16-0.42,2.11-0.42,2.85s0.3,1.29,0.9,1.65
			c0.6,0.36,1.62,0.58,3.06,0.66l-0.24,1.2c-1.2-0.08-2.6-0.13-4.2-0.15s-3.28-0.03-5.04-0.03c-2,0-3.9,0.01-5.7,0.03
			c-1.8,0.02-3.22,0.07-4.26,0.15l0.24-1.2c1.36-0.08,2.42-0.24,3.18-0.48c0.76-0.24,1.36-0.72,1.8-1.44s0.84-1.8,1.2-3.24
			l7.92-29.76c0.28-1.24,0.42-2.22,0.42-2.94c0-0.72-0.28-1.26-0.84-1.62c-0.56-0.36-1.6-0.56-3.12-0.6l0.3-1.2
			c1,0.04,2.4,0.08,4.2,0.12c1.8,0.04,3.58,0.06,5.34,0.06c1.44,0,2.89-0.02,4.35-0.06s2.93-0.06,4.41-0.06
			c4.8,0,8.35,0.78,10.65,2.34c2.3,1.56,3.45,3.8,3.45,6.72c0,3.12-1.04,5.91-3.12,8.37c-2.08,2.46-4.98,4.4-8.7,5.82
			c-3.72,1.42-8.04,2.13-12.96,2.13H90.542z M48.542,120.394l0.3-1.08h1.98c2.64,0,4.96-0.52,6.96-1.56c2-1.04,3.58-2.57,4.74-4.59
			s1.74-4.47,1.74-7.35c0-2.16-0.46-3.75-1.38-4.77c-0.92-1.02-2.32-1.53-4.2-1.53c-1.16,0-2.03,0.27-2.61,0.81
			c-0.58,0.54-1.09,1.59-1.53,3.15l-8.16,30.96c-0.32,1.2-0.51,2.17-0.57,2.91s0.21,1.28,0.81,1.62c0.6,0.34,1.68,0.55,3.24,0.63
			l-0.24,1.2c-1.2-0.08-2.61-0.13-4.23-0.15s-3.33-0.03-5.13-0.03c-1.92,0-3.78,0.01-5.58,0.03s-3.22,0.07-4.26,0.15l0.24-1.2
			c1.36-0.08,2.42-0.24,3.18-0.48c0.76-0.24,1.36-0.72,1.8-1.44s0.84-1.8,1.2-3.24l7.86-29.76c0.36-1.24,0.54-2.22,0.54-2.94
			c0-0.72-0.29-1.26-0.87-1.62c-0.58-0.36-1.63-0.56-3.15-0.6l0.3-1.2c0.72,0.04,1.6,0.07,2.64,0.09c1.04,0.02,2.13,0.04,3.27,0.06
			c1.14,0.02,2.19,0.03,3.15,0.03c1.84,0,3.47-0.02,4.89-0.06c1.42-0.04,2.79-0.06,4.11-0.06c4.88,0,8.49,0.68,10.83,2.04
			s3.51,3.46,3.51,6.3c0,2.76-0.97,5.15-2.91,7.17c-1.94,2.02-4.63,3.6-8.07,4.74s-7.44,1.71-12,1.71L48.542,120.394z
			 M49.502,119.494c1.16,0.08,2.13,0.15,2.91,0.21c0.78,0.06,1.46,0.12,2.04,0.18c0.58,0.06,1.15,0.11,1.71,0.15
			c2.28,0.2,4.31,0.54,6.09,1.02s3.13,1.28,4.05,2.4c0.92,1.12,1.24,2.74,0.96,4.86l-0.84,6.18c-0.12,1.28-0.04,2.3,0.24,3.06
			s0.82,1.14,1.62,1.14c0.8,0,1.49-0.37,2.07-1.11c0.58-0.74,1.11-1.81,1.59-3.21l0.3-0.84h1.38l-0.24,0.78
			c-0.72,2.48-1.81,4.32-3.27,5.52c-1.46,1.2-3.43,1.8-5.91,1.8c-2.76,0-4.73-0.66-5.91-1.98c-1.18-1.32-1.63-2.98-1.35-4.98
			l0.9-6.84c0.2-1.64,0.14-3.01-0.18-4.11c-0.32-1.1-1.12-1.93-2.4-2.49c-1.28-0.56-3.24-0.84-5.88-0.84L49.502,119.494z
			 M21.842,134.434c-0.56,2.2-0.62,3.59-0.18,4.17c0.44,0.58,1.68,0.91,3.72,0.99l-0.24,1.2c-1.16-0.08-2.63-0.13-4.41-0.15
			s-3.57-0.03-5.37-0.03c-1.92,0-3.71,0.01-5.37,0.03s-3.01,0.07-4.05,0.15l0.3-1.2c1.32-0.08,2.35-0.24,3.09-0.48
			c0.74-0.24,1.33-0.72,1.77-1.44s0.84-1.8,1.2-3.24l7.92-29.76c0.56-2.2,0.61-3.59,0.15-4.17c-0.46-0.58-1.69-0.91-3.69-0.99
			l0.3-1.2c0.96,0.04,2.28,0.08,3.96,0.12c1.68,0.04,3.5,0.06,5.46,0.06c1.8,0,3.57-0.02,5.31-0.06s3.25-0.08,4.53-0.12l-0.3,1.2
			c-1.36,0.04-2.42,0.19-3.18,0.45c-0.76,0.26-1.35,0.74-1.77,1.44c-0.42,0.7-0.83,1.79-1.23,3.27L21.842,134.434z M469.262,47.774
			c1.64-0.64,3.2-1.36,4.68-2.16c1.48-0.8,2.74-1.68,3.78-2.64c1.56-1.4,2.81-3.03,3.75-4.89s1.41-3.87,1.41-6.03
			c0-0.8-0.08-1.33-0.24-1.59c-0.16-0.26-0.4-0.39-0.72-0.39c-1.08,0-2.28,0.68-3.6,2.04c-1.32,1.36-2.57,3.14-3.75,5.34
			c-1.18,2.2-2.14,4.6-2.88,7.2c-0.74,2.6-1.11,5.12-1.11,7.56c0,2.24,0.43,3.77,1.29,4.59c0.86,0.82,1.97,1.23,3.33,1.23
			c1.08,0,2.42-0.36,4.02-1.08c1.6-0.72,3.18-2,4.74-3.84l0.96,0.48c-0.84,1.32-1.94,2.6-3.3,3.84c-1.36,1.24-2.94,2.25-4.74,3.03
			c-1.8,0.78-3.76,1.17-5.88,1.17c-2.68,0-4.92-0.71-6.72-2.13c-1.8-1.42-2.7-3.53-2.7-6.33c0-2.12,0.35-4.3,1.05-6.54
			c0.7-2.24,1.69-4.41,2.97-6.51c1.28-2.1,2.82-4,4.62-5.7s3.8-3.04,6-4.02c2.2-0.98,4.54-1.47,7.02-1.47
			c1.76,0,3.24,0.39,4.44,1.17c1.2,0.78,1.8,1.97,1.8,3.57c0,1.56-0.43,3.02-1.29,4.38c-0.86,1.36-2.01,2.6-3.45,3.72
			s-3.05,2.12-4.83,3c-1.78,0.88-3.6,1.64-5.46,2.28s-3.61,1.14-5.25,1.5L469.262,47.774z M434.942,52.094
			c1.6-4.6,3.09-8.4,4.47-11.4s2.73-5.36,4.05-7.08c1.32-1.72,2.68-2.93,4.08-3.63c1.4-0.7,2.9-1.05,4.5-1.05
			c1.96,0,3.35,0.42,4.17,1.26c0.82,0.84,1.23,1.95,1.23,3.33s-0.26,2.87-0.78,4.47l-5.88,17.7c-0.36,1.08-0.44,1.85-0.24,2.31
			c0.2,0.46,0.56,0.69,1.08,0.69c0.52,0,1.09-0.29,1.71-0.87c0.62-0.58,1.29-1.87,2.01-3.87l1.08-2.88h1.14l-1.5,4.38
			c-0.88,2.52-2.08,4.18-3.6,4.98c-1.52,0.8-3,1.2-4.44,1.2c-1.92,0-3.31-0.43-4.17-1.29c-0.86-0.86-1.29-2.02-1.29-3.48
			c0-1.46,0.3-3.05,0.9-4.77l5.34-16.2c0.24-0.68,0.41-1.32,0.51-1.92c0.1-0.6,0.08-1.09-0.06-1.47c-0.14-0.38-0.49-0.57-1.05-0.57
			c-1,0-2.13,0.78-3.39,2.34c-1.26,1.56-2.57,3.67-3.93,6.33c-1.36,2.66-2.67,5.67-3.93,9.03s-2.37,6.88-3.33,10.56L434.942,52.094z
			 M433.442,60.794h-8.46l11.88-40.02c0.4-1.36,0.36-2.36-0.12-3c-0.48-0.64-1.7-0.96-3.66-0.96l0.36-1.26
			c2.84-0.04,5.38-0.27,7.62-0.69c2.24-0.42,4.36-1.01,6.36-1.77L433.442,60.794z M413.582,55.694c-0.28,1.04-0.25,1.8,0.09,2.28
			c0.34,0.48,0.85,0.72,1.53,0.72c0.84,0,1.68-0.42,2.52-1.26c0.84-0.84,1.58-2.14,2.22-3.9l0.9-2.46h1.14l-1.2,3.48
			c-0.8,2.4-1.97,4.18-3.51,5.34s-3.37,1.74-5.49,1.74c-2.8,0-4.62-0.92-5.46-2.76c-0.84-1.84-0.88-4.1-0.12-6.78l9-31.26
			c1.72-0.04,3.28-0.12,4.68-0.24c1.4-0.12,2.74-0.32,4.02-0.6L413.582,55.694z M427.862,29.774l-0.18,1.2h-20.82l0.3-1.2H427.862z
			 M374.822,55.694c-0.28,1.04-0.25,1.8,0.09,2.28c0.34,0.48,0.85,0.72,1.53,0.72c0.84,0,1.68-0.42,2.52-1.26s1.58-2.14,2.22-3.9
			l0.9-2.46h1.14l-1.2,3.48c-0.8,2.4-1.97,4.18-3.51,5.34c-1.54,1.16-3.37,1.74-5.49,1.74c-2.8,0-4.62-0.92-5.46-2.76
			c-0.84-1.84-0.88-4.1-0.12-6.78l9-31.26c1.72-0.04,3.28-0.12,4.68-0.24c1.4-0.12,2.74-0.32,4.02-0.6L374.822,55.694z
			 M389.102,29.774l-0.18,1.2h-20.82l0.3-1.2H389.102z M354.542,55.694c-0.28,1-0.4,1.75-0.36,2.25c0.04,0.5,0.38,0.75,1.02,0.75
			c0.72,0,1.39-0.35,2.01-1.05c0.62-0.7,1.23-1.93,1.83-3.69l1.14-3.06h1.14l-1.62,4.56c-0.8,2.36-1.94,3.98-3.42,4.86
			s-3.02,1.32-4.62,1.32c-1.08,0-1.99-0.18-2.73-0.54c-0.74-0.36-1.31-0.86-1.71-1.5c-0.4-0.76-0.57-1.67-0.51-2.73
			c0.06-1.06,0.25-2.27,0.57-3.63l6.06-23.46c1.64-0.04,3.19-0.12,4.65-0.24c1.46-0.12,2.81-0.32,4.05-0.6L354.542,55.694z
			 M351.602,39.734c-1.48,4.4-2.9,8.03-4.26,10.89s-2.69,5.08-3.99,6.66s-2.63,2.7-3.99,3.36c-1.36,0.66-2.8,0.99-4.32,0.99
			c-2.52,0-4.16-0.8-4.92-2.4c-0.76-1.6-0.66-3.82,0.3-6.66l5.82-17.7c0.4-1.16,0.49-1.95,0.27-2.37c-0.22-0.42-0.57-0.63-1.05-0.63
			c-0.52,0-1.1,0.29-1.74,0.87c-0.64,0.58-1.32,1.87-2.04,3.87l-1.08,2.88h-1.14l1.5-4.38c0.88-2.52,2.08-4.18,3.6-4.98
			c1.52-0.8,3-1.2,4.44-1.2c1.8,0,3.14,0.39,4.02,1.17s1.36,1.88,1.44,3.3c0.08,1.42-0.2,3.11-0.84,5.07l-5.4,16.2
			c-0.88,2.64-0.68,3.96,0.6,3.96c0.96,0,2.06-0.77,3.3-2.31c1.24-1.54,2.53-3.62,3.87-6.24c1.34-2.62,2.63-5.59,3.87-8.91
			c1.24-3.32,2.32-6.76,3.24-10.32L351.602,39.734z M295.862,51.734c0-2.28,0.4-4.74,1.2-7.38c0.8-2.64,2.01-5.13,3.63-7.47
			c1.62-2.34,3.64-4.25,6.06-5.73c2.42-1.48,5.27-2.22,8.55-2.22c3.08,0,5.47,0.84,7.17,2.52c1.7,1.68,2.55,4.14,2.55,7.38
			c0,2.28-0.4,4.74-1.2,7.38s-2.01,5.13-3.63,7.47s-3.64,4.25-6.06,5.73c-2.42,1.48-5.27,2.22-8.55,2.22
			c-3.08,0-5.47-0.84-7.17-2.52C296.712,57.434,295.862,54.974,295.862,51.734z M315.002,30.134c-0.92,0-1.89,0.55-2.91,1.65
			c-1.02,1.1-2.02,2.57-3,4.41s-1.86,3.9-2.64,6.18c-0.78,2.28-1.4,4.63-1.86,7.05s-0.69,4.73-0.69,6.93c0,1.44,0.17,2.48,0.51,3.12
			c0.34,0.64,0.85,0.96,1.53,0.96c0.92,0,1.88-0.53,2.88-1.59c1-1.06,1.98-2.49,2.94-4.29c0.96-1.8,1.83-3.83,2.61-6.09
			c0.78-2.26,1.41-4.61,1.89-7.05c0.48-2.44,0.72-4.8,0.72-7.08c0-1.68-0.17-2.8-0.51-3.36
			C316.132,30.414,315.642,30.134,315.002,30.134z M269.102,59.054c-1.32,0.04-2.72,0.33-4.2,0.87s-2.9,1.15-4.26,1.83l-0.9-0.42
			c0.28-0.56,0.53-1.13,0.75-1.71c0.22-0.58,0.39-1.19,0.51-1.83l10.86-37.02c0.36-1.36,0.31-2.36-0.15-3
			c-0.46-0.64-1.67-0.96-3.63-0.96l0.36-1.26c2.84-0.04,5.36-0.27,7.56-0.69c2.2-0.42,4.3-1.01,6.3-1.77L269.102,59.054z
			 M281.462,32.114c-0.8,0-1.67,0.51-2.61,1.53s-1.88,2.41-2.82,4.17s-1.82,3.76-2.64,6s-1.53,4.58-2.13,7.02l1.08-6.12
			c2-5.64,3.97-9.68,5.91-12.12s4.13-3.66,6.57-3.66s4.29,0.79,5.55,2.37c1.26,1.58,1.89,3.87,1.89,6.87c0,1.84-0.27,3.83-0.81,5.97
			c-0.54,2.14-1.33,4.24-2.37,6.3c-1.04,2.06-2.31,3.93-3.81,5.61c-1.5,1.68-3.23,3.03-5.19,4.05c-1.96,1.02-4.12,1.53-6.48,1.53
			c-1.16,0-2.2-0.24-3.12-0.72c-0.92-0.48-1.6-1.12-2.04-1.92l0.42-0.96c0.44,0.68,0.9,1.16,1.38,1.44
			c0.48,0.28,1.04,0.42,1.68,0.42c1.2,0,2.37-0.51,3.51-1.53c1.14-1.02,2.19-2.38,3.15-4.08s1.81-3.59,2.55-5.67
			c0.74-2.08,1.32-4.19,1.74-6.33c0.42-2.14,0.63-4.15,0.63-6.03c0-1.56-0.18-2.64-0.54-3.24S282.102,32.114,281.462,32.114z
			 M249.782,29.834c1.72-0.04,3.28-0.13,4.68-0.27c1.4-0.14,2.74-0.35,4.02-0.63l-7.86,26.76c-0.12,0.52-0.21,1.01-0.27,1.47
			s0,0.83,0.18,1.11s0.49,0.42,0.93,0.42c0.52,0,1.1-0.31,1.74-0.93c0.64-0.62,1.3-1.89,1.98-3.81l1.08-2.88h1.14l-1.5,4.38
			c-0.88,2.44-2.07,4.08-3.57,4.92c-1.5,0.84-2.95,1.26-4.35,1.26c-2.08,0-3.56-0.62-4.44-1.86c-0.6-0.88-0.87-1.97-0.81-3.27
			c0.06-1.3,0.33-2.79,0.81-4.47L249.782,29.834z M237.062,58.394c0.64,0,1.34-0.34,2.1-1.02c0.76-0.68,1.54-1.67,2.34-2.97
			c0.8-1.3,1.58-2.89,2.34-4.77s1.46-4.06,2.1-6.54l-1.32,6.54c-1.52,4.48-3.24,7.6-5.16,9.36c-1.92,1.76-4,2.64-6.24,2.64
			c-2.24,0-3.92-0.66-5.04-1.98c-1.12-1.32-1.68-3.12-1.68-5.4c0-2.16,0.37-4.42,1.11-6.78c0.74-2.36,1.74-4.64,3-6.84
			c1.26-2.2,2.68-4.18,4.26-5.94s3.26-3.16,5.04-4.2s3.53-1.56,5.25-1.56c1.32,0,2.34,0.52,3.06,1.56s0.94,2.66,0.66,4.86
			l-0.66,0.36c0.2-1.44,0.13-2.56-0.21-3.36c-0.34-0.8-0.91-1.2-1.71-1.2c-1.04,0-2.18,0.71-3.42,2.13
			c-1.24,1.42-2.43,3.28-3.57,5.58c-1.14,2.3-2.08,4.84-2.82,7.62c-0.74,2.78-1.11,5.51-1.11,8.19c0,1.36,0.14,2.32,0.42,2.88
			C236.082,58.114,236.502,58.394,237.062,58.394z M188.702,47.774c1.64-0.64,3.2-1.36,4.68-2.16c1.48-0.8,2.74-1.68,3.78-2.64
			c1.56-1.4,2.81-3.03,3.75-4.89s1.41-3.87,1.41-6.03c0-0.8-0.08-1.33-0.24-1.59s-0.4-0.39-0.72-0.39c-1.08,0-2.28,0.68-3.6,2.04
			c-1.32,1.36-2.57,3.14-3.75,5.34c-1.18,2.2-2.14,4.6-2.88,7.2c-0.74,2.6-1.11,5.12-1.11,7.56c0,2.24,0.43,3.77,1.29,4.59
			c0.86,0.82,1.97,1.23,3.33,1.23c1.08,0,2.42-0.36,4.02-1.08c1.6-0.72,3.18-2,4.74-3.84l0.96,0.48c-0.84,1.32-1.94,2.6-3.3,3.84
			c-1.36,1.24-2.94,2.25-4.74,3.03c-1.8,0.78-3.76,1.17-5.88,1.17c-2.68,0-4.92-0.71-6.72-2.13c-1.8-1.42-2.7-3.53-2.7-6.33
			c0-2.12,0.35-4.3,1.05-6.54c0.7-2.24,1.69-4.41,2.97-6.51c1.28-2.1,2.82-4,4.62-5.7c1.8-1.7,3.8-3.04,6-4.02
			c2.2-0.98,4.54-1.47,7.02-1.47c1.76,0,3.24,0.39,4.44,1.17s1.8,1.97,1.8,3.57c0,1.56-0.43,3.02-1.29,4.38
			c-0.86,1.36-2.01,2.6-3.45,3.72s-3.05,2.12-4.83,3s-3.6,1.64-5.46,2.28c-1.86,0.64-3.61,1.14-5.25,1.5L188.702,47.774z
			 M168.362,55.694c-0.28,1.04-0.25,1.8,0.09,2.28c0.34,0.48,0.85,0.72,1.53,0.72c0.84,0,1.68-0.42,2.52-1.26s1.58-2.14,2.22-3.9
			l0.9-2.46h1.14l-1.2,3.48c-0.8,2.4-1.97,4.18-3.51,5.34s-3.37,1.74-5.49,1.74c-2.8,0-4.62-0.92-5.46-2.76
			c-0.84-1.84-0.88-4.1-0.12-6.78l9-31.26c1.72-0.04,3.28-0.12,4.68-0.24c1.4-0.12,2.74-0.32,4.02-0.6L168.362,55.694z
			 M182.642,29.774l-0.18,1.2h-20.82l0.3-1.2H182.642z M126.362,51.734c0-2.28,0.4-4.74,1.2-7.38c0.8-2.64,2.01-5.13,3.63-7.47
			c1.62-2.34,3.64-4.25,6.06-5.73c2.42-1.48,5.27-2.22,8.55-2.22c3.08,0,5.47,0.84,7.17,2.52c1.7,1.68,2.55,4.14,2.55,7.38
			c0,2.28-0.4,4.74-1.2,7.38c-0.8,2.64-2.01,5.13-3.63,7.47s-3.64,4.25-6.06,5.73c-2.42,1.48-5.27,2.22-8.55,2.22
			c-3.08,0-5.47-0.84-7.17-2.52C127.212,57.434,126.362,54.974,126.362,51.734z M145.502,30.134c-0.92,0-1.89,0.55-2.91,1.65
			c-1.02,1.1-2.02,2.57-3,4.41s-1.86,3.9-2.64,6.18c-0.78,2.28-1.4,4.63-1.86,7.05s-0.69,4.73-0.69,6.93c0,1.44,0.17,2.48,0.51,3.12
			c0.34,0.64,0.85,0.96,1.53,0.96c0.92,0,1.88-0.53,2.88-1.59c1-1.06,1.98-2.49,2.94-4.29c0.96-1.8,1.83-3.83,2.61-6.09
			s1.41-4.61,1.89-7.05c0.48-2.44,0.72-4.8,0.72-7.08c0-1.68-0.17-2.8-0.51-3.36C146.632,30.414,146.142,30.134,145.502,30.134z
			 M115.202,55.694c-0.28,1-0.4,1.75-0.36,2.25s0.38,0.75,1.02,0.75c0.72,0,1.39-0.35,2.01-1.05c0.62-0.7,1.23-1.93,1.83-3.69
			l1.14-3.06h1.14l-1.62,4.56c-0.8,2.36-1.94,3.98-3.42,4.86c-1.48,0.88-3.02,1.32-4.62,1.32c-1.08,0-1.99-0.18-2.73-0.54
			c-0.74-0.36-1.31-0.86-1.71-1.5c-0.4-0.76-0.57-1.67-0.51-2.73c0.06-1.06,0.25-2.27,0.57-3.63l6.06-23.46
			c1.64-0.04,3.19-0.12,4.65-0.24c1.46-0.12,2.81-0.32,4.05-0.6L115.202,55.694z M112.262,39.734c-1.48,4.4-2.9,8.03-4.26,10.89
			c-1.36,2.86-2.69,5.08-3.99,6.66c-1.3,1.58-2.63,2.7-3.99,3.36c-1.36,0.66-2.8,0.99-4.32,0.99c-2.52,0-4.16-0.8-4.92-2.4
			c-0.76-1.6-0.66-3.82,0.3-6.66l5.82-17.7c0.4-1.16,0.49-1.95,0.27-2.37c-0.22-0.42-0.57-0.63-1.05-0.63
			c-0.52,0-1.1,0.29-1.74,0.87c-0.64,0.58-1.32,1.87-2.04,3.87l-1.08,2.88h-1.14l1.5-4.38c0.88-2.52,2.08-4.18,3.6-4.98
			c1.52-0.8,3-1.2,4.44-1.2c1.8,0,3.14,0.39,4.02,1.17s1.36,1.88,1.44,3.3c0.08,1.42-0.2,3.11-0.84,5.07l-5.4,16.2
			c-0.88,2.64-0.68,3.96,0.6,3.96c0.96,0,2.06-0.77,3.3-2.31c1.24-1.54,2.53-3.62,3.87-6.24s2.63-5.59,3.87-8.91
			s2.32-6.76,3.24-10.32L112.262,39.734z M56.282,46.214c-2.52,0-4.76-0.43-6.72-1.29s-3.48-2.08-4.56-3.66
			c-1.08-1.58-1.62-3.49-1.62-5.73c0-2.6,0.69-5,2.07-7.2c1.38-2.2,3.27-4.11,5.67-5.73c2.4-1.62,5.11-2.88,8.13-3.78
			c3.02-0.9,6.15-1.35,9.39-1.35c3.56,0,6.69,0.5,9.39,1.5c2.7,1,4.81,2.41,6.33,4.23c1.52,1.82,2.28,3.97,2.28,6.45
			c0,2.6-0.78,5.29-2.34,8.07c-1.56,2.78-3.66,5.52-6.3,8.22c-2.64,2.7-5.58,5.24-8.82,7.62s-6.54,4.48-9.9,6.3
			c-3.36,1.82-6.58,3.25-9.66,4.29s-5.74,1.56-7.98,1.56c-1.92,0-3.44-0.4-4.56-1.2c-1.12-0.8-1.68-2.02-1.68-3.66
			c0-1.96,0.8-3.57,2.4-4.83s3.6-1.89,6-1.89c2.04,0,3.99,0.43,5.85,1.29s3.7,1.93,5.52,3.21c1.82,1.28,3.67,2.55,5.55,3.81
			s3.84,2.33,5.88,3.21c2.04,0.88,4.22,1.32,6.54,1.32c2.12,0,3.79-0.42,5.01-1.26c1.22-0.84,2.13-1.84,2.73-3
			c-1.08,0.88-2.36,1.32-3.84,1.32c-1.32,0-2.43-0.39-3.33-1.17c-0.9-0.78-1.35-1.85-1.35-3.21c0-1.4,0.51-2.59,1.53-3.57
			c1.02-0.98,2.33-1.47,3.93-1.47c1.4,0,2.57,0.42,3.51,1.26c0.94,0.84,1.41,2.1,1.41,3.78c0,1.48-0.42,2.96-1.26,4.44
			c-0.84,1.48-2.03,2.82-3.57,4.02c-1.54,1.2-3.31,2.16-5.31,2.88c-2,0.72-4.2,1.08-6.6,1.08c-2.72,0-5.13-0.46-7.23-1.38
			c-2.1-0.92-3.97-2.06-5.61-3.42c-1.64-1.36-3.16-2.73-4.56-4.11c-1.4-1.38-2.77-2.53-4.11-3.45c-1.34-0.92-2.77-1.38-4.29-1.38
			c-1.04,0-1.89,0.26-2.55,0.78c-0.66,0.52-0.99,1.24-0.99,2.16c0,1.08,0.48,1.92,1.44,2.52c0.96,0.6,2.3,0.9,4.02,0.9
			c1.2,0,2.57-0.21,4.11-0.63c1.54-0.42,3.13-0.94,4.77-1.56c1.64-0.62,3.2-1.29,4.68-2.01c2.8-1.36,5.45-3.06,7.95-5.1
			c2.5-2.04,4.71-4.35,6.63-6.93c1.92-2.58,3.43-5.37,4.53-8.37c1.1-3,1.65-6.12,1.65-9.36c0-3.8-0.78-6.78-2.34-8.94
			s-3.8-3.24-6.72-3.24c-2.12,0-4.04,0.54-5.76,1.62c-1.72,1.08-3.19,2.52-4.41,4.32s-2.15,3.79-2.79,5.97
			c-0.64,2.18-0.96,4.37-0.96,6.57c0,2.4,0.47,4.24,1.41,5.52s2.51,1.92,4.71,1.92c1.68,0,3.2-0.36,4.56-1.08
			c1.36-0.72,2.49-1.67,3.39-2.85s1.51-2.41,1.83-3.69c0.12-0.48,0.2-0.97,0.24-1.47c0.04-0.5,0.04-0.97,0-1.41
			c-0.44,1.32-1.19,2.25-2.25,2.79c-1.06,0.54-2.07,0.81-3.03,0.81c-1.32,0-2.37-0.42-3.15-1.26s-1.17-1.9-1.17-3.18
			c0-1.6,0.55-2.92,1.65-3.96c1.1-1.04,2.45-1.56,4.05-1.56c1.68,0,3,0.6,3.96,1.8c0.96,1.2,1.44,2.8,1.44,4.8
			c0,2.32-0.63,4.38-1.89,6.18c-1.26,1.8-3,3.22-5.22,4.26S59.202,46.214,56.282,46.214z M15.662,29.174c0-2.52,0.8-4.88,2.4-7.08
			s3.78-3.92,6.54-5.16l0.3,0.96c-1.72,0.88-3.2,2.02-4.44,3.42s-1.92,2.96-2.04,4.68c0.52-0.52,1.1-0.94,1.74-1.26
			c0.64-0.32,1.3-0.48,1.98-0.48c2.32,0,3.48,1.08,3.48,3.24c0,1.08-0.27,2.08-0.81,3c-0.54,0.92-1.26,1.65-2.16,2.19
			s-1.91,0.81-3.03,0.81c-1.28,0-2.26-0.35-2.94-1.05C16.002,31.744,15.662,30.654,15.662,29.174z M27.482,29.174
			c0-2.52,0.8-4.88,2.4-7.08c1.6-2.2,3.78-3.92,6.54-5.16l0.3,0.96c-1.76,0.88-3.26,2.02-4.5,3.42c-1.24,1.4-1.92,2.96-2.04,4.68
			c0.52-0.52,1.1-0.94,1.74-1.26c0.64-0.32,1.32-0.48,2.04-0.48c2.32,0,3.48,1.08,3.48,3.24c0,1.08-0.27,2.08-0.81,3
			c-0.54,0.92-1.27,1.65-2.19,2.19c-0.92,0.54-1.92,0.81-3,0.81c-1.28,0-2.26-0.35-2.94-1.05
			C27.822,31.744,27.482,30.654,27.482,29.174z"/>
	</defs>
	<clipPath id="SVGID_2_">
		<use xlink:href="#SVGID_1_"  overflow="visible"/>
	</clipPath>
	<g clip-path="url(#SVGID_2_)">
		<defs>
			<rect id="SVGID_3_" x="5.402" y="-4.206" width="493" height="374"/>
		</defs>
		<clipPath id="SVGID_4_">
			<use xlink:href="#SVGID_3_"  overflow="visible"/>
		</clipPath>
		<rect x="0.942" y="8.094" clip-path="url(#SVGID_4_)" fill="#131313" width="493.54" height="274.168"/>
	</g>
</g>
</svg>
