<?xml version="1.0" encoding="utf-8"?>
<!-- Generator: Adobe Illustrator 17.0.0, SVG Export Plug-In . SVG Version: 6.00 Build 0)  -->
<!DOCTYPE svg PUBLIC "-//W3C//DTD SVG 1.1//EN" "http://www.w3.org/Graphics/SVG/1.1/DTD/svg11.dtd">
<svg version="1.1" id="Layer_1" xmlns="http://www.w3.org/2000/svg" xmlns:xlink="http://www.w3.org/1999/xlink" x="0px" y="0px"
	 width="792px" height="419.588px" viewBox="0 0 792 419.588" enable-background="new 0 0 792 419.588" xml:space="preserve">
<g>
	<defs>
		<path id="SVGID_1_" d="M529.238,384c0.216,0,0.432-0.216,0.432-0.432l-0.072-7.452v-1.368c0-3.96,2.088-5.76,4.032-5.76
			c1.62,0,2.844,1.296,2.844,3.312v3.816l-0.108,7.452c0,0.216,0.216,0.432,0.432,0.432h4.608c0.216,0,0.432-0.216,0.432-0.432
			l-0.144-7.452v-3.888c0-4.536-2.484-7.2-6.408-7.2c-2.592,0-4.716,1.152-5.976,2.772l0.072-1.908
			c0.036-0.216-0.18-0.432-0.396-0.432h-4.356c-0.216,0-0.432,0.216-0.432,0.432l0.108,9.216l-0.18,8.46
			c0,0.216,0.216,0.432,0.432,0.432H529.238z M511.814,380.868c-2.7,0-4.032-1.872-4.032-6.048c0-4.176,1.26-6.192,3.996-6.228
			c2.664,0,3.96,2.016,3.96,6.192C515.738,379.032,514.478,380.868,511.814,380.868z M511.814,384.468
			c6.048,0,9.468-3.888,9.468-9.792c0-5.904-3.42-9.684-9.468-9.684c-6.048,0-9.54,3.888-9.54,9.792
			C502.274,380.688,505.766,384.468,511.814,384.468z M491.438,384.432c4.86,0,8.532-2.196,8.532-6.084
			c0-7.884-12.132-4.284-12.132-7.812c0-1.584,1.116-2.232,2.88-2.232c2.16,0,3.132,0.936,3.456,2.448
			c0.072,0.252,0.252,0.432,0.54,0.432h4.14c0.216,0,0.432-0.216,0.396-0.432c-0.396-3.816-3.636-5.724-8.46-5.724
			c-5.004,0-8.1,2.052-8.1,5.904c0,7.776,12.132,4.356,12.132,7.884c0,1.44-1.152,2.268-3.276,2.268
			c-2.484,0-3.852-0.864-4.032-2.88c0-0.252-0.216-0.432-0.468-0.432h-4.356c-0.216,0-0.432,0.216-0.432,0.432
			C482.51,382.272,486.29,384.432,491.438,384.432z M472.79,384c0.216,0,0.432-0.216,0.432-0.432l-0.036-7.812
			c-0.036-4.248,2.808-6.372,6.624-6.372c0.18,0,0.396,0,0.576,0.036c0.252,0,0.432-0.18,0.432-0.396v-3.132
			c0-0.252-0.216-0.468-0.432-0.504c-0.216-0.036-0.468-0.072-0.72-0.072c-2.7,0-5.184,1.08-6.624,3.276l0.108-2.7
			c0.036-0.216-0.18-0.432-0.396-0.432h-4.572c-0.216,0-0.432,0.216-0.432,0.432l0.18,8.82l-0.18,8.856
			c0,0.216,0.216,0.432,0.432,0.432H472.79z M459.29,372.408h-7.596c0.432-2.556,1.728-3.852,3.888-3.852
			C457.958,368.556,459.074,370.428,459.29,372.408z M455.654,384.468c5.148,0,8.352-2.952,8.892-6.3
			c0.036-0.216-0.18-0.432-0.396-0.432h-4.284c-0.288,0-0.504,0.18-0.576,0.432c-0.504,1.908-1.764,2.7-3.564,2.7
			c-2.592,0-3.96-1.548-4.176-5.04h13.14c0.216,0,0.432-0.216,0.432-0.432c-0.144-6.408-3.528-10.404-9.576-10.404
			c-5.904,0-9.432,3.888-9.432,9.792C446.114,380.4,449.462,384.468,455.654,384.468z M435.422,371.256h-4.788l0.18-8.46h4.464
			c2.592,0,4.068,1.332,4.068,4.212C439.346,370.032,437.546,371.256,435.422,371.256z M430.454,384
			c0.216,0,0.432-0.216,0.432-0.432l-0.18-8.316h4.32c6.012,0,9.612-3.06,9.612-8.352c0-5.364-3.492-8.1-9.576-8.1h-9.432
			c-0.216,0-0.432,0.216-0.432,0.432l0.252,12.168l-0.252,12.168c0,0.216,0.216,0.432,0.432,0.432H430.454z M409.034,372.408h-7.596
			c0.432-2.556,1.728-3.852,3.888-3.852C407.702,368.556,408.818,370.428,409.034,372.408z M405.398,384.468
			c5.148,0,8.352-2.952,8.892-6.3c0.036-0.216-0.18-0.432-0.396-0.432h-4.284c-0.288,0-0.504,0.18-0.576,0.432
			c-0.504,1.908-1.764,2.7-3.564,2.7c-2.592,0-3.96-1.548-4.176-5.04h13.14c0.216,0,0.432-0.216,0.432-0.432
			c-0.144-6.408-3.528-10.404-9.576-10.404c-5.904,0-9.432,3.888-9.432,9.792C395.858,380.4,399.206,384.468,405.398,384.468z
			 M392.474,384c0.216,0,0.432-0.216,0.432-0.432L392.69,371.4l0.216-12.168c0-0.216-0.216-0.432-0.432-0.432h-4.572
			c-0.216,0-0.432,0.216-0.432,0.432l0.216,12.168l-0.216,12.168c0,0.216,0.216,0.432,0.432,0.432H392.474z M374.906,380.688
			c-2.592-0.036-3.996-2.196-3.96-6.156c0.036-3.816,1.44-5.76,4.068-5.76c2.592-0.036,4.032,2.052,4.032,6.12
			C379.046,378.636,377.642,380.76,374.906,380.688z M376.418,384.36c5.04,0,8.136-4.32,8.136-9.684c0-5.4-2.772-9.576-8.028-9.576
			c-2.34,0-4.176,0.936-5.472,2.484l0.108-8.352c0-0.216-0.216-0.432-0.432-0.432h-4.644c-0.216,0-0.432,0.216-0.432,0.432
			l0.18,12.168l-0.18,12.168c0,0.216,0.216,0.432,0.432,0.432h4.644c0.216,0,0.432-0.216,0.396-0.432l-0.072-1.548
			C372.314,383.532,374.114,384.36,376.418,384.36z M353.126,380.76c-2.592,0.036-4.032-2.088-4.032-6.264
			c0-3.816,1.404-5.868,4.14-5.796c2.592,0.036,3.996,2.196,3.96,6.156C357.158,378.78,355.754,380.76,353.126,380.76z
			 M351.614,384.36c2.34,0,4.176-0.936,5.472-2.52l-0.072,1.728c0,0.216,0.216,0.432,0.432,0.432h4.572
			c0.216,0,0.432-0.216,0.432-0.432l-0.18-8.82l0.18-8.856c0-0.216-0.216-0.432-0.432-0.432h-4.608
			c-0.216,0-0.432,0.216-0.396,0.432l0.072,1.548c-1.26-1.512-3.06-2.34-5.364-2.34c-5.04,0-8.136,4.32-8.136,9.684
			C343.586,380.184,346.358,384.36,351.614,384.36z M338.294,384.36c1.116,0,2.232-0.252,3.276-0.576
			c0.216-0.072,0.396-0.324,0.396-0.576v-2.664c0-0.216-0.216-0.36-0.432-0.324c-0.504,0.144-1.152,0.288-1.98,0.288
			c-1.188,0-1.98-0.504-1.98-2.088l-0.036-9.144h4.032c0.216,0,0.432-0.216,0.432-0.432v-2.952c0-0.216-0.216-0.432-0.432-0.432
			h-3.996l0.072-4.212c0-0.216-0.216-0.432-0.432-0.432h-4.644c-0.216,0-0.432,0.216-0.432,0.432l0.036,4.212h-1.944
			c-0.216,0-0.432,0.216-0.432,0.432v2.952c0,0.216,0.216,0.432,0.432,0.432h1.98l-0.036,9.288
			C332.174,382.776,335.162,384.36,338.294,384.36z M319.07,380.868c-2.7,0-4.032-1.872-4.032-6.048c0-4.176,1.26-6.192,3.996-6.228
			c2.664,0,3.96,2.016,3.96,6.192C322.994,379.032,321.734,380.868,319.07,380.868z M319.07,384.468
			c6.048,0,9.468-3.888,9.468-9.792c0-5.904-3.42-9.684-9.468-9.684c-6.048,0-9.54,3.888-9.54,9.792
			C309.53,380.688,313.022,384.468,319.07,384.468z M289.298,384c0.216,0,0.432-0.216,0.432-0.432v-8.892l-0.18-7.2l-0.072-1.44
			l9.864,17.604c0.144,0.216,0.396,0.36,0.648,0.36h6.048c0.216,0,0.432-0.216,0.432-0.432l-0.216-12.168l0.216-12.168
			c0-0.216-0.216-0.432-0.432-0.432h-4.32c-0.216,0-0.432,0.216-0.432,0.432v10.116l0.18,7.128v0.432l-10.008-17.748
			c-0.144-0.216-0.396-0.36-0.648-0.36h-5.832c-0.216,0-0.432,0.216-0.432,0.432l0.216,12.168l-0.216,12.168
			c0,0.216,0.216,0.432,0.432,0.432H289.298z M273.602,375.144c0.216,0,0.432-0.216,0.432-0.432v-2.88
			c0-0.216-0.216-0.432-0.432-0.432h-20.376c-0.216,0-0.432,0.216-0.432,0.432v2.88c0,0.216,0.216,0.432,0.432,0.432H273.602z
			 M286.72,219.8c2.12-1,3.68-2.3,4.68-3.9s1.5-3.38,1.5-5.34c0-0.48-0.06-1.1-0.18-1.86c-0.12-0.76-0.4-1.46-0.84-2.1
			c-0.36-0.56-0.82-1.02-1.38-1.38c-0.56-0.36-1.28-0.54-2.16-0.54c-1.04,0-1.94,0.36-2.7,1.08c-0.76,0.72-1.14,1.64-1.14,2.76
			c0,1.2,0.38,2.14,1.14,2.82c0.76,0.68,1.66,1.02,2.7,1.02c0.84,0,1.58-0.26,2.22-0.78c0.12,0.36,0.18,0.78,0.18,1.26
			c0,1.16-0.45,2.3-1.35,3.42c-0.9,1.12-1.97,1.94-3.21,2.46L286.72,219.8z M296.92,219.8c2.12-1,3.68-2.3,4.68-3.9
			s1.5-3.38,1.5-5.34c0-0.48-0.06-1.1-0.18-1.86c-0.12-0.76-0.4-1.46-0.84-2.1c-0.36-0.56-0.82-1.02-1.38-1.38
			c-0.56-0.36-1.28-0.54-2.16-0.54c-1.04,0-1.94,0.36-2.7,1.08c-0.76,0.72-1.14,1.64-1.14,2.76c0,1.2,0.38,2.14,1.14,2.82
			c0.76,0.68,1.66,1.02,2.7,1.02c0.84,0,1.58-0.26,2.22-0.78c0.12,0.36,0.18,0.78,0.18,1.26c0,1.16-0.45,2.3-1.35,3.42
			c-0.9,1.12-1.97,1.94-3.21,2.46L296.92,219.8z M272.56,248.84c1.04,0,1.94-0.38,2.7-1.14c0.76-0.76,1.14-1.66,1.14-2.7
			s-0.38-1.94-1.14-2.7c-0.76-0.76-1.66-1.14-2.7-1.14s-1.94,0.38-2.7,1.14c-0.76,0.76-1.14,1.66-1.14,2.7s0.38,1.94,1.14,2.7
			C270.62,248.46,271.52,248.84,272.56,248.84z M255.76,248.84c1.04,0,1.94-0.38,2.7-1.14c0.76-0.76,1.14-1.66,1.14-2.7
			s-0.38-1.94-1.14-2.7c-0.76-0.76-1.66-1.14-2.7-1.14c-1.04,0-1.94,0.38-2.7,1.14c-0.76,0.76-1.14,1.66-1.14,2.7
			s0.38,1.94,1.14,2.7C253.82,248.46,254.72,248.84,255.76,248.84z M238.9,248.84c1.04,0,1.94-0.38,2.7-1.14
			c0.76-0.76,1.14-1.66,1.14-2.7s-0.38-1.94-1.14-2.7c-0.76-0.76-1.66-1.14-2.7-1.14c-1.04,0-1.94,0.38-2.7,1.14
			c-0.76,0.76-1.14,1.66-1.14,2.7s0.38,1.94,1.14,2.7C236.96,248.46,237.86,248.84,238.9,248.84z M212.2,247.04
			c-1.76,0-3.25-0.53-4.47-1.59c-1.22-1.06-2.14-2.66-2.76-4.8c-0.62-2.14-0.93-4.83-0.93-8.07c-0.04-5.08,0.73-8.84,2.31-11.28
			c1.58-2.44,3.55-3.66,5.91-3.66c1.6,0,2.99,0.38,4.17,1.14c1.18,0.76,2.05,1.98,2.61,3.66l-0.061-0.172v17.889l-0.07,0.336
			c-0.385,1.721-1.035,3.11-1.949,4.166l-0.2,0.221C215.4,246.32,213.88,247.04,212.2,247.04z M210.46,248.84
			c2.76,0,4.95-0.82,6.57-2.46c0.81-0.82,1.457-1.815,1.942-2.985l0.007-0.018l0.001,5.283c0.754-0.274,1.575-0.475,2.461-0.602
			L221.89,248c1.06-0.12,2.17-0.18,3.33-0.18c1.24,0,2.48,0.06,3.72,0.18v-1.26c-1.72,0-2.91-0.43-3.57-1.29
			c-0.66-0.86-0.99-2.19-0.99-3.99v-40.5c-0.88,0.28-1.85,0.49-2.91,0.63c-1.06,0.14-2.17,0.21-3.33,0.21
			c-1.2,0-2.44-0.06-3.72-0.18v1.26c1.76,0,2.96,0.43,3.6,1.29c0.64,0.86,0.96,2.19,0.96,3.99l-0.001,11.572l-0.087-0.15
			c-0.5-0.807-1.141-1.449-1.923-1.924l-0.239-0.138c-1.54-0.84-3.19-1.26-4.95-1.26c-2.4,0-4.63,0.6-6.69,1.8
			c-2.06,1.2-3.72,3.01-4.98,5.43c-1.26,2.42-1.89,5.45-1.89,9.09s0.49,6.66,1.47,9.06s2.4,4.2,4.26,5.4
			S207.98,248.84,210.46,248.84z M172.555,228.016c0.339-3.539,1.164-6.158,2.475-7.856c1.42-1.84,3.05-2.76,4.89-2.76
			c1.36,0,2.47,0.5,3.33,1.5s1.49,2.33,1.89,3.99c0.4,1.66,0.56,3.47,0.48,5.43h-13.093L172.555,228.016z M180.4,248.84
			c2,0,3.76-0.39,5.28-1.17c1.52-0.78,2.78-1.79,3.78-3.03c1-1.24,1.72-2.52,2.16-3.84l-1.2-0.48c-1.04,2.24-2.32,3.8-3.84,4.68
			c-1.52,0.88-3.18,1.32-4.98,1.32c-1.52,0-2.99-0.51-4.41-1.53s-2.57-2.51-3.45-4.47s-1.32-4.3-1.32-7.02
			c0-0.72,0.02-1.44,0.06-2.16c0.04-0.72,0.1-1.38,0.18-1.98l-0.038,0.3h18.758c0-4.364-0.923-7.619-2.769-9.764l-0.201-0.226
			c-1.98-2.14-4.73-3.21-8.25-3.21c-2.72,0-5.1,0.69-7.14,2.07c-2.04,1.38-3.62,3.34-4.74,5.88c-1.12,2.54-1.68,5.57-1.68,9.09
			c0,3.04,0.55,5.73,1.65,8.07c1.1,2.34,2.68,4.17,4.74,5.49C175.05,248.18,177.52,248.84,180.4,248.84z M155.5,248.84
			c2.44,0,4.25-0.8,5.43-2.4s1.97-3.56,2.37-5.88l-1.2-0.3c-0.64,2.32-1.4,3.97-2.28,4.95s-1.92,1.47-3.12,1.47
			s-2.14-0.38-2.82-1.14c-0.68-0.76-1.02-2.08-1.02-3.96v-23.22h8.88v-1.2h-8.88v-10.02c-0.76,0.28-1.6,0.48-2.52,0.6
			c-0.92,0.12-1.88,0.2-2.88,0.24v9.18h-5.76v1.2h5.76v20.1c0,2.12,0.17,3.82,0.51,5.1c0.34,1.28,0.95,2.38,1.83,3.3
			c0.68,0.64,1.46,1.13,2.34,1.47S154.14,248.84,155.5,248.84z M122.86,246.02c-1.36,0-2.5-0.45-3.42-1.35s-1.38-2.27-1.38-4.11
			c0-1.96,0.48-3.47,1.44-4.53c0.96-1.06,2.11-1.9,3.45-2.52c1.34-0.62,2.64-1.19,3.9-1.71c1.26-0.52,2.19-1.22,2.79-2.1v11.76
			c-1,1.64-2.08,2.81-3.24,3.51C125.24,245.67,124.06,246.02,122.86,246.02z M134.8,248.42c1.28,0,2.3-0.21,3.06-0.63
			s1.56-0.95,2.4-1.59l-0.66-1.02c-0.4,0.36-0.81,0.66-1.23,0.9c-0.42,0.24-0.91,0.36-1.47,0.36c-0.68,0-1.16-0.23-1.44-0.69
			c-0.28-0.46-0.42-1.17-0.42-2.13v-16.68c0-1.92-0.16-3.57-0.48-4.95c-0.32-1.38-1-2.55-2.04-3.51c-0.76-0.72-1.72-1.27-2.88-1.65
			c-1.16-0.38-2.56-0.57-4.2-0.57c-1.84,0-3.49,0.23-4.95,0.69c-1.46,0.46-2.65,1.01-3.57,1.65c-0.8,0.56-1.46,1.16-1.98,1.8
			s-0.78,1.48-0.78,2.52c0,0.92,0.27,1.75,0.81,2.49c0.54,0.74,1.39,1.11,2.55,1.11c1,0,1.82-0.29,2.46-0.87
			c0.64-0.58,0.96-1.37,0.96-2.37s-0.28-1.82-0.84-2.46c-0.56-0.64-1.22-1.04-1.98-1.2c0.68-0.88,1.59-1.46,2.73-1.74
			c1.14-0.28,2.21-0.42,3.21-0.42c1.04,0,1.98,0.15,2.82,0.45c0.84,0.3,1.51,0.89,2.01,1.77c0.5,0.88,0.75,2.16,0.75,3.84v3.72
			c0,0.92-0.41,1.68-1.23,2.28c-0.82,0.6-1.87,1.14-3.15,1.62c-1.28,0.48-2.63,0.97-4.05,1.47c-1.42,0.5-2.77,1.1-4.05,1.8
			c-1.28,0.7-2.33,1.6-3.15,2.7s-1.23,2.49-1.23,4.17c0,2.16,0.59,3.89,1.77,5.19c1.18,1.3,3.07,1.95,5.67,1.95
			c1.76,0,3.45-0.36,5.07-1.08c1.62-0.72,3.07-2.14,4.35-4.26c0,1.4,0.34,2.64,1.02,3.72C131.34,247.88,132.72,248.42,134.8,248.42z
			 M87.655,228.016c0.339-3.539,1.164-6.158,2.475-7.856c1.42-1.84,3.05-2.76,4.89-2.76c1.36,0,2.47,0.5,3.33,1.5
			c0.86,1,1.49,2.33,1.89,3.99c0.4,1.66,0.56,3.47,0.48,5.43H87.627L87.655,228.016z M95.5,248.84c2,0,3.76-0.39,5.28-1.17
			c1.52-0.78,2.78-1.79,3.78-3.03c1-1.24,1.72-2.52,2.16-3.84l-1.2-0.48c-1.04,2.24-2.32,3.8-3.84,4.68s-3.18,1.32-4.98,1.32
			c-1.52,0-2.99-0.51-4.41-1.53c-1.42-1.02-2.57-2.51-3.45-4.47c-0.88-1.96-1.32-4.3-1.32-7.02c0-0.72,0.02-1.44,0.06-2.16
			c0.04-0.72,0.1-1.38,0.18-1.98l-0.038,0.3h18.758c0-4.364-0.923-7.619-2.769-9.764l-0.201-0.226c-1.98-2.14-4.73-3.21-8.25-3.21
			c-2.72,0-5.1,0.69-7.14,2.07s-3.62,3.34-4.74,5.88s-1.68,5.57-1.68,9.09c0,3.04,0.55,5.73,1.65,8.07c1.1,2.34,2.68,4.17,4.74,5.49
			C90.15,248.18,92.62,248.84,95.5,248.84z M70.36,248v-1.26c-1.96,0-3.51-0.33-4.65-0.99c-1.14-0.66-1.71-1.97-1.71-3.93V229.1
			c0-1.48,0.35-3.1,1.05-4.86c0.7-1.76,1.67-3.27,2.91-4.53c1.24-1.26,2.7-1.89,4.38-1.89c0.56,0,0.98,0.2,1.26,0.6
			c-0.52,0.32-0.99,0.75-1.41,1.29s-0.63,1.19-0.63,1.95c0,1,0.32,1.77,0.96,2.31c0.64,0.54,1.38,0.81,2.22,0.81
			c1.04,0,1.87-0.38,2.49-1.14c0.62-0.76,0.93-1.64,0.93-2.64c0-0.88-0.23-1.67-0.69-2.37c-0.46-0.7-1.1-1.27-1.92-1.71
			s-1.77-0.66-2.85-0.66c-1.4,0-2.68,0.4-3.84,1.2c-1.16,0.8-2.15,1.79-2.97,2.97c-0.82,1.18-1.45,2.35-1.89,3.51v-7.5
			c-0.88,0.28-1.85,0.49-2.91,0.63c-1.06,0.14-2.17,0.21-3.33,0.21c-1.2,0-2.44-0.06-3.72-0.18v1.26c1.76,0,2.96,0.43,3.6,1.29
			s0.96,2.19,0.96,3.99v18.78c0,1.68-0.35,2.82-1.05,3.42c-0.7,0.6-1.87,0.9-3.51,0.9V248c0.68-0.04,1.69-0.09,3.03-0.15
			c1.34-0.06,2.69-0.09,4.05-0.09c1.88,0,3.66,0.03,5.34,0.09S69.44,247.96,70.36,248z M38.02,248.84c2.16,0,3.98-0.42,5.46-1.26
			c1.48-0.84,2.68-1.91,3.6-3.21c0.92-1.3,1.58-2.59,1.98-3.87l-1.14-0.42c-1.04,2.28-2.36,3.88-3.96,4.8
			c-1.6,0.92-3.18,1.38-4.74,1.38c-1.56,0-2.99-0.45-4.29-1.35c-1.3-0.9-2.35-2.39-3.15-4.47c-0.8-2.08-1.2-4.88-1.2-8.4
			c0-2.84,0.26-5.21,0.78-7.11c0.52-1.9,1.2-3.4,2.04-4.5c0.84-1.1,1.76-1.89,2.76-2.37s2-0.72,3-0.72c1.16,0,2.25,0.24,3.27,0.72
			s1.73,1.08,2.13,1.8c-0.68,0.16-1.27,0.52-1.77,1.08s-0.75,1.3-0.75,2.22c0,0.96,0.33,1.7,0.99,2.22
			c0.66,0.52,1.43,0.78,2.31,0.78c0.92,0,1.68-0.29,2.28-0.87s0.9-1.41,0.9-2.49c0-0.92-0.24-1.77-0.72-2.55
			c-0.48-0.78-1.18-1.47-2.1-2.07c-0.96-0.64-2.04-1.12-3.24-1.44c-1.2-0.32-2.44-0.48-3.72-0.48c-2.72,0-5.14,0.71-7.26,2.13
			s-3.77,3.38-4.95,5.88c-1.18,2.5-1.77,5.39-1.77,8.67c0,3.28,0.59,6.11,1.77,8.49c1.18,2.38,2.77,4.21,4.77,5.49
			C33.3,248.2,35.54,248.84,38.02,248.84z M459.295,148.016c0.339-3.539,1.164-6.158,2.475-7.856c1.42-1.84,3.05-2.76,4.89-2.76
			c1.36,0,2.47,0.5,3.33,1.5s1.49,2.33,1.89,3.99c0.4,1.66,0.56,3.47,0.48,5.43h-13.093L459.295,148.016z M467.14,168.84
			c2,0,3.76-0.39,5.28-1.17c1.52-0.78,2.78-1.79,3.78-3.03c1-1.24,1.72-2.52,2.16-3.84l-1.2-0.48c-1.04,2.24-2.32,3.8-3.84,4.68
			c-1.52,0.88-3.18,1.32-4.98,1.32c-1.52,0-2.99-0.51-4.41-1.53c-1.42-1.02-2.57-2.51-3.45-4.47s-1.32-4.3-1.32-7.02
			c0-0.72,0.02-1.44,0.06-2.16c0.04-0.72,0.1-1.38,0.18-1.98l-0.038,0.3h18.758c0-4.364-0.923-7.619-2.769-9.764l-0.201-0.226
			c-1.98-2.14-4.73-3.21-8.25-3.21c-2.72,0-5.1,0.69-7.14,2.07s-3.62,3.34-4.74,5.88s-1.68,5.57-1.68,9.09
			c0,3.04,0.55,5.73,1.65,8.07c1.1,2.34,2.68,4.17,4.74,5.49C461.79,168.18,464.26,168.84,467.14,168.84z M418.12,168.3
			l8.558-24.135l9.502,24.135h1.02l8.7-25.8c0.52-1.56,1.11-2.63,1.77-3.21c0.66-0.58,1.37-0.91,2.13-0.99v-1.2
			c-0.64,0.04-1.33,0.08-2.07,0.12c-0.74,0.04-1.57,0.06-2.49,0.06c-0.6,0-1.15-0.01-1.65-0.03s-1.01-0.04-1.53-0.06
			c-0.52-0.02-1.14-0.05-1.86-0.09v1.2c2.12,0.16,3.47,0.64,4.05,1.44c0.58,0.8,0.53,2.2-0.15,4.2l-5.654,17.188l-9.166-24.268
			h-1.38l-8.618,23.799L413.26,143.4c-0.565-1.619-0.757-2.777-0.578-3.475l0.038-0.125c0.24-0.68,0.74-1.09,1.5-1.23
			c0.76-0.14,1.64-0.21,2.64-0.21v-1.26c-1.2,0.08-2.49,0.16-3.87,0.24s-2.69,0.12-3.93,0.12c-1,0-1.93-0.03-2.79-0.09
			c-0.86-0.06-1.69-0.15-2.49-0.27v1.26c0.44,0,0.97,0.16,1.59,0.48c0.62,0.32,1.25,1.28,1.89,2.88l9.84,26.58H418.12z
			 M381.94,168.84c2.44,0,4.25-0.8,5.43-2.4s1.97-3.56,2.37-5.88l-1.2-0.3c-0.64,2.32-1.4,3.97-2.28,4.95s-1.92,1.47-3.12,1.47
			s-2.14-0.38-2.82-1.14c-0.68-0.76-1.02-2.08-1.02-3.96v-23.22h8.88v-1.2h-8.88v-10.02c-0.76,0.28-1.6,0.48-2.52,0.6
			c-0.92,0.12-1.88,0.2-2.88,0.24v9.18h-5.76v1.2h5.76v20.1c0,2.12,0.17,3.82,0.51,5.1c0.34,1.28,0.95,2.38,1.83,3.3
			c0.68,0.64,1.46,1.13,2.34,1.47S380.58,168.84,381.94,168.84z M349.3,166.02c-1.36,0-2.5-0.45-3.42-1.35s-1.38-2.27-1.38-4.11
			c0-1.96,0.48-3.47,1.44-4.53c0.96-1.06,2.11-1.9,3.45-2.52c1.34-0.62,2.64-1.19,3.9-1.71c1.26-0.52,2.19-1.22,2.79-2.1v11.76
			c-1,1.64-2.08,2.81-3.24,3.51C351.68,165.67,350.5,166.02,349.3,166.02z M361.24,168.42c1.28,0,2.3-0.21,3.06-0.63
			s1.56-0.95,2.4-1.59l-0.66-1.02c-0.4,0.36-0.81,0.66-1.23,0.9c-0.42,0.24-0.91,0.36-1.47,0.36c-0.68,0-1.16-0.23-1.44-0.69
			c-0.28-0.46-0.42-1.17-0.42-2.13v-16.68c0-1.92-0.16-3.57-0.48-4.95c-0.32-1.38-1-2.55-2.04-3.51c-0.76-0.72-1.72-1.27-2.88-1.65
			c-1.16-0.38-2.56-0.57-4.2-0.57c-1.84,0-3.49,0.23-4.95,0.69s-2.65,1.01-3.57,1.65c-0.8,0.56-1.46,1.16-1.98,1.8
			s-0.78,1.48-0.78,2.52c0,0.92,0.27,1.75,0.81,2.49c0.54,0.74,1.39,1.11,2.55,1.11c1,0,1.82-0.29,2.46-0.87
			c0.64-0.58,0.96-1.37,0.96-2.37s-0.28-1.82-0.84-2.46c-0.56-0.64-1.22-1.04-1.98-1.2c0.68-0.88,1.59-1.46,2.73-1.74
			c1.14-0.28,2.21-0.42,3.21-0.42c1.04,0,1.98,0.15,2.82,0.45c0.84,0.3,1.51,0.89,2.01,1.77c0.5,0.88,0.75,2.16,0.75,3.84v3.72
			c0,0.92-0.41,1.68-1.23,2.28c-0.82,0.6-1.87,1.14-3.15,1.62c-1.28,0.48-2.63,0.97-4.05,1.47c-1.42,0.5-2.77,1.1-4.05,1.8
			c-1.28,0.7-2.33,1.6-3.15,2.7s-1.23,2.49-1.23,4.17c0,2.16,0.59,3.89,1.77,5.19c1.18,1.3,3.07,1.95,5.67,1.95
			c1.76,0,3.45-0.36,5.07-1.08c1.62-0.72,3.07-2.14,4.35-4.26c0,1.4,0.34,2.64,1.02,3.72C357.78,167.88,359.16,168.42,361.24,168.42
			z M334.84,168v-1.26c-1.64,0-2.81-0.3-3.51-0.9c-0.7-0.6-1.05-1.74-1.05-3.42V146.4c0-2.04-0.16-3.66-0.48-4.86s-0.86-2.2-1.62-3
			c-0.68-0.72-1.53-1.28-2.55-1.68s-2.29-0.6-3.81-0.6c-2.04,0-3.99,0.52-5.85,1.56c-1.86,1.04-3.31,2.92-4.35,5.64v-22.44
			c-0.88,0.28-1.85,0.49-2.91,0.63s-2.17,0.21-3.33,0.21c-1.2,0-2.44-0.06-3.72-0.18v1.26c1.76,0,2.96,0.43,3.6,1.29
			s0.96,2.19,0.96,3.99v34.2c0,1.68-0.35,2.82-1.05,3.42c-0.7,0.6-1.87,0.9-3.51,0.9V168c0.68-0.04,1.72-0.09,3.12-0.15
			c1.4-0.06,2.76-0.09,4.08-0.09s2.61,0.03,3.87,0.09s2.21,0.11,2.85,0.15v-1.26c-1.44,0-2.46-0.3-3.06-0.9
			c-0.6-0.6-0.9-1.74-0.9-3.42v-13.38c0-3.2,0.79-5.81,2.37-7.83s3.59-3.03,6.03-3.03c1.44,0,2.51,0.32,3.21,0.96
			c0.7,0.64,1.15,1.48,1.35,2.52s0.3,2.18,0.3,3.42v17.34c0,1.68-0.3,2.82-0.9,3.42c-0.6,0.6-1.62,0.9-3.06,0.9V168
			c0.64-0.04,1.59-0.09,2.85-0.15s2.55-0.09,3.87-0.09s2.68,0.03,4.08,0.09C333.12,167.91,334.16,167.96,334.84,168z M268.96,168.3
			l8.558-24.135l9.502,24.135h1.02l8.7-25.8c0.52-1.56,1.11-2.63,1.77-3.21c0.66-0.58,1.37-0.91,2.13-0.99v-1.2
			c-0.64,0.04-1.33,0.08-2.07,0.12c-0.74,0.04-1.57,0.06-2.49,0.06c-0.6,0-1.15-0.01-1.65-0.03s-1.01-0.04-1.53-0.06
			c-0.52-0.02-1.14-0.05-1.86-0.09v1.2c2.12,0.16,3.47,0.64,4.05,1.44c0.58,0.8,0.53,2.2-0.15,4.2l-5.654,17.188l-9.166-24.268
			h-1.38l-8.618,23.799L264.1,143.4c-0.565-1.619-0.757-2.777-0.578-3.475l0.038-0.125c0.24-0.68,0.74-1.09,1.5-1.23
			c0.76-0.14,1.64-0.21,2.64-0.21v-1.26c-1.2,0.08-2.49,0.16-3.87,0.24s-2.69,0.12-3.93,0.12c-1,0-1.93-0.03-2.79-0.09
			s-1.69-0.15-2.49-0.27v1.26c0.44,0,0.97,0.16,1.59,0.48c0.62,0.32,1.25,1.28,1.89,2.88l9.84,26.58H268.96z M237.16,168v-1.26
			c-1.96,0-3.51-0.33-4.65-0.99s-1.71-1.97-1.71-3.93v-23.46h6.42v-1.2h-6.42v-1.56c0-3.44,0.06-5.99,0.18-7.65
			c0.12-1.66,0.42-2.91,0.9-3.75c0.36-0.68,0.87-1.22,1.53-1.62c0.66-0.4,1.45-0.6,2.37-0.6c0.84,0,1.51,0.13,2.01,0.39
			c0.5,0.26,0.81,0.57,0.93,0.93c-0.76,0.16-1.37,0.5-1.83,1.02c-0.46,0.52-0.69,1.2-0.69,2.04c0,1,0.33,1.79,0.99,2.37
			s1.43,0.87,2.31,0.87c0.92,0,1.68-0.3,2.28-0.9c0.6-0.6,0.9-1.36,0.9-2.28c0-0.72-0.16-1.4-0.48-2.04
			c-0.32-0.64-0.78-1.2-1.38-1.68c-0.64-0.48-1.39-0.87-2.25-1.17c-0.86-0.3-1.85-0.45-2.97-0.45c-1.48,0-2.84,0.27-4.08,0.81
			s-2.26,1.27-3.06,2.19c-1.12,1.36-1.91,2.99-2.37,4.89c-0.46,1.9-0.69,4.63-0.69,8.19h-4.8v1.2h4.8v24.06
			c0,1.68-0.35,2.82-1.05,3.42c-0.7,0.6-1.87,0.9-3.51,0.9V168c0.68-0.04,1.69-0.09,3.03-0.15c1.34-0.06,2.69-0.09,4.05-0.09
			c1.88,0,3.66,0.03,5.34,0.09S236.24,167.96,237.16,168z M201.46,167.64c-2.28,0-4.15-1.17-5.61-3.51
			c-1.46-2.34-2.19-6.19-2.19-11.55s0.73-9.22,2.19-11.58c1.46-2.36,3.33-3.54,5.61-3.54c2.28,0,4.15,1.18,5.61,3.54
			s2.19,6.22,2.19,11.58s-0.73,9.21-2.19,11.55C205.61,166.47,203.74,167.64,201.46,167.64z M201.46,168.84
			c2.56,0,4.86-0.56,6.9-1.68c2.04-1.12,3.67-2.87,4.89-5.25c1.22-2.38,1.83-5.49,1.83-9.33s-0.61-6.96-1.83-9.36
			c-1.22-2.4-2.85-4.16-4.89-5.28c-2.04-1.12-4.34-1.68-6.9-1.68c-2.52,0-4.81,0.56-6.87,1.68s-3.7,2.88-4.92,5.28
			c-1.22,2.4-1.83,5.52-1.83,9.36s0.61,6.95,1.83,9.33c1.22,2.38,2.86,4.13,4.92,5.25C196.65,168.28,198.94,168.84,201.46,168.84z
			 M146.155,148.016c0.339-3.539,1.164-6.158,2.475-7.856c1.42-1.84,3.05-2.76,4.89-2.76c1.36,0,2.47,0.5,3.33,1.5
			c0.86,1,1.49,2.33,1.89,3.99c0.4,1.66,0.56,3.47,0.48,5.43h-13.093L146.155,148.016z M154,168.84c2,0,3.76-0.39,5.28-1.17
			c1.52-0.78,2.78-1.79,3.78-3.03c1-1.24,1.72-2.52,2.16-3.84l-1.2-0.48c-1.04,2.24-2.32,3.8-3.84,4.68s-3.18,1.32-4.98,1.32
			c-1.52,0-2.99-0.51-4.41-1.53c-1.42-1.02-2.57-2.51-3.45-4.47c-0.88-1.96-1.32-4.3-1.32-7.02c0-0.72,0.02-1.44,0.06-2.16
			c0.04-0.72,0.1-1.38,0.18-1.98l-0.038,0.3h18.758c0-4.364-0.923-7.619-2.769-9.764l-0.201-0.226c-1.98-2.14-4.73-3.21-8.25-3.21
			c-2.72,0-5.1,0.69-7.14,2.07s-3.62,3.34-4.74,5.88s-1.68,5.57-1.68,9.09c0,3.04,0.55,5.73,1.65,8.07c1.1,2.34,2.68,4.17,4.74,5.49
			C148.65,168.18,151.12,168.84,154,168.84z M115.18,168.84c1.92,0,3.79-0.55,5.61-1.65s3.23-2.95,4.23-5.55v7.08
			c0.88-0.32,1.85-0.54,2.91-0.66s2.17-0.18,3.33-0.18c1.24,0,2.48,0.06,3.72,0.18v-1.26c-1.72,0-2.91-0.43-3.57-1.29
			c-0.66-0.86-0.99-2.19-0.99-3.99v-25.08c-0.88,0.28-1.85,0.49-2.91,0.63c-1.06,0.14-2.17,0.21-3.33,0.21
			c-1.2,0-2.44-0.06-3.72-0.18v1.26c1.76,0,2.96,0.43,3.6,1.29s0.96,2.19,0.96,3.99v12.42c0,3.04-0.76,5.61-2.28,7.71
			s-3.46,3.15-5.82,3.15c-1.44,0-2.48-0.32-3.12-0.96s-1.04-1.48-1.2-2.52c-0.16-1.04-0.24-2.18-0.24-3.42v-23.58
			c-0.88,0.28-1.85,0.49-2.91,0.63c-1.06,0.14-2.17,0.21-3.33,0.21c-1.2,0-2.44-0.06-3.72-0.18v1.26c1.76,0,2.96,0.43,3.6,1.29
			s0.96,2.19,0.96,3.99v15.06c0,1.88,0.14,3.46,0.42,4.74c0.28,1.28,0.8,2.32,1.56,3.12c0.68,0.72,1.54,1.28,2.58,1.68
			C112.56,168.64,113.78,168.84,115.18,168.84z M98.98,168v-1.26c-1.64,0-2.81-0.3-3.51-0.9c-0.7-0.6-1.05-1.74-1.05-3.42v-41.46
			c-0.88,0.28-1.85,0.49-2.91,0.63c-1.06,0.14-2.17,0.21-3.33,0.21c-1.2,0-2.44-0.06-3.72-0.18v1.26c1.76,0,2.96,0.43,3.6,1.29
			s0.96,2.19,0.96,3.99v34.26c0,1.68-0.35,2.82-1.05,3.42c-0.7,0.6-1.87,0.9-3.51,0.9V168c0.68-0.04,1.72-0.09,3.12-0.15
			c1.4-0.06,2.78-0.09,4.14-0.09c1.4,0,2.79,0.03,4.17,0.09S98.3,167.96,98.98,168z M64.54,166.02c-1.36,0-2.5-0.45-3.42-1.35
			s-1.38-2.27-1.38-4.11c0-1.96,0.48-3.47,1.44-4.53c0.96-1.06,2.11-1.9,3.45-2.52c1.34-0.62,2.64-1.19,3.9-1.71
			c1.26-0.52,2.19-1.22,2.79-2.1v11.76c-1,1.64-2.08,2.81-3.24,3.51C66.92,165.67,65.74,166.02,64.54,166.02z M76.48,168.42
			c1.28,0,2.3-0.21,3.06-0.63c0.76-0.42,1.56-0.95,2.4-1.59l-0.66-1.02c-0.4,0.36-0.81,0.66-1.23,0.9
			c-0.42,0.24-0.91,0.36-1.47,0.36c-0.68,0-1.16-0.23-1.44-0.69c-0.28-0.46-0.42-1.17-0.42-2.13v-16.68c0-1.92-0.16-3.57-0.48-4.95
			c-0.32-1.38-1-2.55-2.04-3.51c-0.76-0.72-1.72-1.27-2.88-1.65c-1.16-0.38-2.56-0.57-4.2-0.57c-1.84,0-3.49,0.23-4.95,0.69
			c-1.46,0.46-2.65,1.01-3.57,1.65c-0.8,0.56-1.46,1.16-1.98,1.8s-0.78,1.48-0.78,2.52c0,0.92,0.27,1.75,0.81,2.49
			c0.54,0.74,1.39,1.11,2.55,1.11c1,0,1.82-0.29,2.46-0.87c0.64-0.58,0.96-1.37,0.96-2.37s-0.28-1.82-0.84-2.46
			c-0.56-0.64-1.22-1.04-1.98-1.2c0.68-0.88,1.59-1.46,2.73-1.74c1.14-0.28,2.21-0.42,3.21-0.42c1.04,0,1.98,0.15,2.82,0.45
			c0.84,0.3,1.51,0.89,2.01,1.77c0.5,0.88,0.75,2.16,0.75,3.84v3.72c0,0.92-0.41,1.68-1.23,2.28c-0.82,0.6-1.87,1.14-3.15,1.62
			c-1.28,0.48-2.63,0.97-4.05,1.47c-1.42,0.5-2.77,1.1-4.05,1.8c-1.28,0.7-2.33,1.6-3.15,2.7s-1.23,2.49-1.23,4.17
			c0,2.16,0.59,3.89,1.77,5.19c1.18,1.3,3.07,1.95,5.67,1.95c1.76,0,3.45-0.36,5.07-1.08c1.62-0.72,3.07-2.14,4.35-4.26
			c0,1.4,0.34,2.64,1.02,3.72C73.02,167.88,74.4,168.42,76.48,168.42z M37.42,168.3l9.84-25.8c0.56-1.52,1.16-2.58,1.8-3.18
			c0.64-0.6,1.34-0.94,2.1-1.02v-1.2c-0.64,0.04-1.33,0.08-2.07,0.12c-0.74,0.04-1.57,0.06-2.49,0.06c-0.92,0-1.73-0.02-2.43-0.06
			c-0.7-0.04-1.57-0.08-2.61-0.12v1.2c2.12,0.16,3.47,0.64,4.05,1.44c0.58,0.8,0.49,2.2-0.27,4.2l-6.606,17.327L31.36,143.04
			c-0.563-1.463-0.765-2.521-0.606-3.175l0.036-0.125c0.22-0.64,0.72-1.03,1.5-1.17c0.78-0.14,1.67-0.21,2.67-0.21v-1.26
			c-1.2,0.08-2.49,0.14-3.87,0.18c-1.38,0.04-2.69,0.06-3.93,0.06c-1,0-1.93-0.03-2.79-0.09s-1.69-0.11-2.49-0.15v1.26
			c0.44,0,0.97,0.17,1.59,0.51c0.62,0.34,1.25,1.29,1.89,2.85L36.4,168.3H37.42z M737.08,88.84c2.16,0,3.98-0.42,5.46-1.26
			s2.68-1.91,3.6-3.21c0.92-1.3,1.58-2.59,1.98-3.87l-1.14-0.42c-1.04,2.28-2.36,3.88-3.96,4.8s-3.18,1.38-4.74,1.38
			c-1.56,0-2.99-0.45-4.29-1.35c-1.3-0.9-2.35-2.39-3.15-4.47c-0.8-2.08-1.2-4.88-1.2-8.4c0-2.84,0.26-5.21,0.78-7.11
			c0.52-1.9,1.2-3.4,2.04-4.5c0.84-1.1,1.76-1.89,2.76-2.37s2-0.72,3-0.72c1.16,0,2.25,0.24,3.27,0.72s1.73,1.08,2.13,1.8
			c-0.68,0.16-1.27,0.52-1.77,1.08s-0.75,1.3-0.75,2.22c0,0.96,0.33,1.7,0.99,2.22c0.66,0.52,1.43,0.78,2.31,0.78
			c0.92,0,1.68-0.29,2.28-0.87c0.6-0.58,0.9-1.41,0.9-2.49c0-0.92-0.24-1.77-0.72-2.55s-1.18-1.47-2.1-2.07
			c-0.96-0.64-2.04-1.12-3.24-1.44c-1.2-0.32-2.44-0.48-3.72-0.48c-2.72,0-5.14,0.71-7.26,2.13s-3.77,3.38-4.95,5.88
			c-1.18,2.5-1.77,5.39-1.77,8.67c0,3.28,0.59,6.11,1.77,8.49c1.18,2.38,2.77,4.21,4.77,5.49C732.36,88.2,734.6,88.84,737.08,88.84z
			 M718.6,88v-1.26c-1.64,0-2.81-0.3-3.51-0.9c-0.7-0.6-1.05-1.74-1.05-3.42V56.44c-0.88,0.28-1.85,0.49-2.91,0.63
			c-1.06,0.14-2.17,0.21-3.33,0.21c-1.2,0-2.44-0.06-3.72-0.18v1.26c1.76,0,2.96,0.43,3.6,1.29c0.64,0.86,0.96,2.19,0.96,3.99v18.78
			c0,1.68-0.35,2.82-1.05,3.42c-0.7,0.6-1.87,0.9-3.51,0.9V88c0.68-0.04,1.72-0.09,3.12-0.15c1.4-0.06,2.78-0.09,4.14-0.09
			c1.4,0,2.79,0.03,4.17,0.09S717.92,87.96,718.6,88z M710.92,49.78c1.04,0,1.94-0.38,2.7-1.14c0.76-0.76,1.14-1.66,1.14-2.7
			s-0.38-1.94-1.14-2.7c-0.76-0.76-1.66-1.14-2.7-1.14c-1.04,0-1.94,0.38-2.7,1.14c-0.76,0.76-1.14,1.66-1.14,2.7
			s0.38,1.94,1.14,2.7C708.98,49.4,709.88,49.78,710.92,49.78z M688.12,88.84c1.84,0,3.53-0.32,5.07-0.96
			c1.54-0.64,2.79-1.58,3.75-2.82c0.96-1.24,1.44-2.78,1.44-4.62c0-2.48-0.8-4.48-2.4-6s-3.54-3.02-5.82-4.5
			c-1.36-0.88-2.62-1.69-3.78-2.43c-1.16-0.74-2.1-1.54-2.82-2.4c-0.72-0.86-1.08-1.89-1.08-3.09c0-1.52,0.47-2.67,1.41-3.45
			c0.94-0.78,2.11-1.17,3.51-1.17c1.8,0,3.26,0.45,4.38,1.35s1.97,2.05,2.55,3.45c0.58,1.4,0.99,2.84,1.23,4.32h1.38
			c0-2.6,0.02-4.67,0.06-6.21s0.1-2.87,0.18-3.99h-1.38c-0.28,2.52-1.08,3.24-2.4,2.16c-0.52-0.44-1.34-0.92-2.46-1.44
			c-1.12-0.52-2.48-0.78-4.08-0.78c-1.56,0-3.02,0.27-4.38,0.81s-2.45,1.38-3.27,2.52c-0.82,1.14-1.23,2.61-1.23,4.41
			c0,1.64,0.39,3.04,1.17,4.2c0.78,1.16,1.8,2.2,3.06,3.12c1.26,0.92,2.61,1.84,4.05,2.76c1.96,1.24,3.58,2.42,4.86,3.54
			s1.92,2.56,1.92,4.32c0,2.12-0.59,3.6-1.77,4.44c-1.18,0.84-2.37,1.26-3.57,1.26c-2,0-3.56-0.47-4.68-1.41s-1.94-2.25-2.46-3.93
			c-0.52-1.68-0.92-3.64-1.2-5.88h-1.38l-0.001,1.112c-0.004,2.529-0.024,4.598-0.059,6.208c-0.04,1.84-0.1,3.4-0.18,4.68h1.38
			c0.16-1,0.4-1.67,0.72-2.01c0.32-0.34,0.68-0.35,1.08-0.03c0.4,0.32,0.81,0.62,1.23,0.9c0.42,0.28,0.83,0.52,1.23,0.72
			c0.72,0.28,1.47,0.49,2.25,0.63C686.41,88.77,687.24,88.84,688.12,88.84z M672.34,88v-1.26c-1.64,0-2.81-0.3-3.51-0.9
			c-0.7-0.6-1.05-1.74-1.05-3.42V66.4c0-2.04-0.16-3.66-0.48-4.86c-0.32-1.2-0.86-2.2-1.62-3c-0.68-0.72-1.53-1.28-2.55-1.68
			s-2.29-0.6-3.81-0.6c-2.04,0-3.99,0.53-5.85,1.59s-3.31,2.95-4.35,5.67v-7.08c-0.88,0.28-1.85,0.49-2.91,0.63
			c-1.06,0.14-2.17,0.21-3.33,0.21c-1.2,0-2.44-0.06-3.72-0.18v1.26c1.76,0,2.96,0.43,3.6,1.29s0.96,2.19,0.96,3.99v18.78
			c0,1.68-0.35,2.82-1.05,3.42c-0.7,0.6-1.87,0.9-3.51,0.9V88c0.68-0.04,1.72-0.09,3.12-0.15s2.76-0.09,4.08-0.09
			c1.32,0,2.61,0.03,3.87,0.09s2.21,0.11,2.85,0.15v-1.26c-1.44,0-2.46-0.3-3.06-0.9c-0.6-0.6-0.9-1.74-0.9-3.42V69.1
			c0-3.08,0.77-5.67,2.31-7.77c1.54-2.1,3.57-3.15,6.09-3.15c1.44,0,2.51,0.32,3.21,0.96c0.7,0.64,1.15,1.48,1.35,2.52
			c0.2,1.04,0.3,2.18,0.3,3.42v17.34c0,1.68-0.3,2.82-0.9,3.42c-0.6,0.6-1.62,0.9-3.06,0.9V88c0.64-0.04,1.59-0.09,2.85-0.15
			s2.55-0.09,3.87-0.09c1.32,0,2.68,0.03,4.08,0.09S671.66,87.96,672.34,88z M634.96,88v-1.26c-1.64,0-2.81-0.3-3.51-0.9
			c-0.7-0.6-1.05-1.74-1.05-3.42V56.44c-0.88,0.28-1.85,0.49-2.91,0.63c-1.06,0.14-2.17,0.21-3.33,0.21c-1.2,0-2.44-0.06-3.72-0.18
			v1.26c1.76,0,2.96,0.43,3.6,1.29s0.96,2.19,0.96,3.99v18.78c0,1.68-0.35,2.82-1.05,3.42c-0.7,0.6-1.87,0.9-3.51,0.9V88
			c0.68-0.04,1.72-0.09,3.12-0.15c1.4-0.06,2.78-0.09,4.14-0.09c1.4,0,2.79,0.03,4.17,0.09S634.28,87.96,634.96,88z M627.28,49.78
			c1.04,0,1.94-0.38,2.7-1.14c0.76-0.76,1.14-1.66,1.14-2.7s-0.38-1.94-1.14-2.7c-0.76-0.76-1.66-1.14-2.7-1.14
			c-1.04,0-1.94,0.38-2.7,1.14c-0.76,0.76-1.14,1.66-1.14,2.7s0.38,1.94,1.14,2.7C625.34,49.4,626.24,49.78,627.28,49.78z
			 M608.92,88v-1.26c-1.96,0-3.51-0.33-4.65-0.99s-1.71-1.97-1.71-3.93V69.1c0-1.48,0.35-3.1,1.05-4.86
			c0.7-1.76,1.67-3.27,2.91-4.53c1.24-1.26,2.7-1.89,4.38-1.89c0.56,0,0.98,0.2,1.26,0.6c-0.52,0.32-0.99,0.75-1.41,1.29
			s-0.63,1.19-0.63,1.95c0,1,0.32,1.77,0.96,2.31c0.64,0.54,1.38,0.81,2.22,0.81c1.04,0,1.87-0.38,2.49-1.14
			c0.62-0.76,0.93-1.64,0.93-2.64c0-0.88-0.23-1.67-0.69-2.37c-0.46-0.7-1.1-1.27-1.92-1.71c-0.82-0.44-1.77-0.66-2.85-0.66
			c-1.4,0-2.68,0.4-3.84,1.2c-1.16,0.8-2.15,1.79-2.97,2.97c-0.82,1.18-1.45,2.35-1.89,3.51v-7.5c-0.88,0.28-1.85,0.49-2.91,0.63
			c-1.06,0.14-2.17,0.21-3.33,0.21c-1.2,0-2.44-0.06-3.72-0.18v1.26c1.76,0,2.96,0.43,3.6,1.29c0.64,0.86,0.96,2.19,0.96,3.99v18.78
			c0,1.68-0.35,2.82-1.05,3.42c-0.7,0.6-1.87,0.9-3.51,0.9V88c0.68-0.04,1.69-0.09,3.03-0.15s2.69-0.09,4.05-0.09
			c1.88,0,3.66,0.03,5.34,0.09C606.7,87.91,608,87.96,608.92,88z M582.52,88.84c2.44,0,4.25-0.8,5.43-2.4
			c1.18-1.6,1.97-3.56,2.37-5.88l-1.2-0.3c-0.64,2.32-1.4,3.97-2.28,4.95s-1.92,1.47-3.12,1.47c-1.2,0-2.14-0.38-2.82-1.14
			c-0.68-0.76-1.02-2.08-1.02-3.96V58.36h8.88v-1.2h-8.88V47.14c-0.76,0.28-1.6,0.48-2.52,0.6c-0.92,0.12-1.88,0.2-2.88,0.24v9.18
			h-5.76v1.2h5.76v20.1c0,2.12,0.17,3.82,0.51,5.1c0.34,1.28,0.95,2.38,1.83,3.3c0.68,0.64,1.46,1.13,2.34,1.47
			S581.16,88.84,582.52,88.84z M566.44,88v-1.26c-1.64,0-2.81-0.3-3.51-0.9c-0.7-0.6-1.05-1.74-1.05-3.42V66.4
			c0-2.04-0.16-3.66-0.48-4.86c-0.32-1.2-0.86-2.2-1.62-3c-0.68-0.72-1.53-1.28-2.55-1.68s-2.29-0.6-3.81-0.6
			c-2.04,0-3.99,0.53-5.85,1.59c-1.86,1.06-3.31,2.95-4.35,5.67v-7.08c-0.88,0.28-1.85,0.49-2.91,0.63
			c-1.06,0.14-2.17,0.21-3.33,0.21c-1.2,0-2.44-0.06-3.72-0.18v1.26c1.76,0,2.96,0.43,3.6,1.29s0.96,2.19,0.96,3.99v18.78
			c0,1.68-0.35,2.82-1.05,3.42c-0.7,0.6-1.87,0.9-3.51,0.9V88c0.68-0.04,1.72-0.09,3.12-0.15s2.76-0.09,4.08-0.09
			c1.32,0,2.61,0.03,3.87,0.09s2.21,0.11,2.85,0.15v-1.26c-1.44,0-2.46-0.3-3.06-0.9c-0.6-0.6-0.9-1.74-0.9-3.42V69.1
			c0-3.08,0.77-5.67,2.31-7.77c1.54-2.1,3.57-3.15,6.09-3.15c1.44,0,2.51,0.32,3.21,0.96c0.7,0.64,1.15,1.48,1.35,2.52
			c0.2,1.04,0.3,2.18,0.3,3.42v17.34c0,1.68-0.3,2.82-0.9,3.42c-0.6,0.6-1.62,0.9-3.06,0.9V88c0.64-0.04,1.59-0.09,2.85-0.15
			s2.55-0.09,3.87-0.09c1.32,0,2.68,0.03,4.08,0.09C564.72,87.91,565.76,87.96,566.44,88z M529.06,88v-1.26
			c-1.64,0-2.81-0.3-3.51-0.9c-0.7-0.6-1.05-1.74-1.05-3.42V56.44c-0.88,0.28-1.85,0.49-2.91,0.63c-1.06,0.14-2.17,0.21-3.33,0.21
			c-1.2,0-2.44-0.06-3.72-0.18v1.26c1.76,0,2.96,0.43,3.6,1.29s0.96,2.19,0.96,3.99v18.78c0,1.68-0.35,2.82-1.05,3.42
			c-0.7,0.6-1.87,0.9-3.51,0.9V88c0.68-0.04,1.72-0.09,3.12-0.15s2.78-0.09,4.14-0.09c1.4,0,2.79,0.03,4.17,0.09
			S528.38,87.96,529.06,88z M521.38,49.78c1.04,0,1.94-0.38,2.7-1.14c0.76-0.76,1.14-1.66,1.14-2.7s-0.38-1.94-1.14-2.7
			c-0.76-0.76-1.66-1.14-2.7-1.14s-1.94,0.38-2.7,1.14c-0.76,0.76-1.14,1.66-1.14,2.7s0.38,1.94,1.14,2.7
			C519.44,49.4,520.34,49.78,521.38,49.78z M473.935,68.016c0.339-3.539,1.164-6.158,2.475-7.856c1.42-1.84,3.05-2.76,4.89-2.76
			c1.36,0,2.47,0.5,3.33,1.5s1.49,2.33,1.89,3.99c0.4,1.66,0.56,3.47,0.48,5.43h-13.093L473.935,68.016z M481.78,88.84
			c2,0,3.76-0.39,5.28-1.17c1.52-0.78,2.78-1.79,3.78-3.03c1-1.24,1.72-2.52,2.16-3.84l-1.2-0.48c-1.04,2.24-2.32,3.8-3.84,4.68
			s-3.18,1.32-4.98,1.32c-1.52,0-2.99-0.51-4.41-1.53c-1.42-1.02-2.57-2.51-3.45-4.47s-1.32-4.3-1.32-7.02
			c0-0.72,0.02-1.44,0.06-2.16c0.04-0.72,0.1-1.38,0.18-1.98l-0.038,0.3h18.758c0-4.364-0.923-7.619-2.769-9.764l-0.201-0.226
			c-1.98-2.14-4.73-3.21-8.25-3.21c-2.72,0-5.1,0.69-7.14,2.07c-2.04,1.38-3.62,3.34-4.74,5.88s-1.68,5.57-1.68,9.09
			c0,3.04,0.55,5.73,1.65,8.07c1.1,2.34,2.68,4.17,4.74,5.49C476.43,88.18,478.9,88.84,481.78,88.84z M463.18,88v-1.26
			c-1.64,0-2.81-0.3-3.51-0.9c-0.7-0.6-1.05-1.74-1.05-3.42V66.4c0-2.04-0.16-3.66-0.48-4.86c-0.32-1.2-0.86-2.2-1.62-3
			c-0.68-0.72-1.53-1.28-2.55-1.68s-2.29-0.6-3.81-0.6c-2.04,0-3.99,0.52-5.85,1.56c-1.86,1.04-3.31,2.92-4.35,5.64V41.02
			c-0.88,0.28-1.85,0.49-2.91,0.63c-1.06,0.14-2.17,0.21-3.33,0.21c-1.2,0-2.44-0.06-3.72-0.18v1.26c1.76,0,2.96,0.43,3.6,1.29
			s0.96,2.19,0.96,3.99v34.2c0,1.68-0.35,2.82-1.05,3.42c-0.7,0.6-1.87,0.9-3.51,0.9V88c0.68-0.04,1.72-0.09,3.12-0.15
			s2.76-0.09,4.08-0.09c1.32,0,2.61,0.03,3.87,0.09c1.26,0.06,2.21,0.11,2.85,0.15v-1.26c-1.44,0-2.46-0.3-3.06-0.9
			c-0.6-0.6-0.9-1.74-0.9-3.42V69.04c0-3.2,0.79-5.81,2.37-7.83c1.58-2.02,3.59-3.03,6.03-3.03c1.44,0,2.51,0.32,3.21,0.96
			c0.7,0.64,1.15,1.48,1.35,2.52c0.2,1.04,0.3,2.18,0.3,3.42v17.34c0,1.68-0.3,2.82-0.9,3.42c-0.6,0.6-1.62,0.9-3.06,0.9V88
			c0.64-0.04,1.59-0.09,2.85-0.15s2.55-0.09,3.87-0.09c1.32,0,2.68,0.03,4.08,0.09C461.46,87.91,462.5,87.96,463.18,88z
			 M420.46,88.84c2.44,0,4.25-0.8,5.43-2.4c1.18-1.6,1.97-3.56,2.37-5.88l-1.2-0.3c-0.64,2.32-1.4,3.97-2.28,4.95
			s-1.92,1.47-3.12,1.47c-1.2,0-2.14-0.38-2.82-1.14c-0.68-0.76-1.02-2.08-1.02-3.96V58.36h8.88v-1.2h-8.88V47.14
			c-0.76,0.28-1.6,0.48-2.52,0.6c-0.92,0.12-1.88,0.2-2.88,0.24v9.18h-5.76v1.2h5.76v20.1c0,2.12,0.17,3.82,0.51,5.1
			c0.34,1.28,0.95,2.38,1.83,3.3c0.68,0.64,1.46,1.13,2.34,1.47S419.1,88.84,420.46,88.84z M383.8,88.84c2.44,0,4.25-0.8,5.43-2.4
			s1.97-3.56,2.37-5.88l-1.2-0.3c-0.64,2.32-1.4,3.97-2.28,4.95s-1.92,1.47-3.12,1.47s-2.14-0.38-2.82-1.14
			c-0.68-0.76-1.02-2.08-1.02-3.96V58.36h8.88v-1.2h-8.88V47.14c-0.76,0.28-1.6,0.48-2.52,0.6c-0.92,0.12-1.88,0.2-2.88,0.24v9.18
			H370v1.2h5.76v20.1c0,2.12,0.17,3.82,0.51,5.1c0.34,1.28,0.95,2.38,1.83,3.3c0.68,0.64,1.46,1.13,2.34,1.47
			S382.44,88.84,383.8,88.84z M347.5,88.84c1.92,0,3.79-0.55,5.61-1.65s3.23-2.95,4.23-5.55v7.08c0.88-0.32,1.85-0.54,2.91-0.66
			s2.17-0.18,3.33-0.18c1.24,0,2.48,0.06,3.72,0.18V86.8c-1.72,0-2.91-0.43-3.57-1.29c-0.66-0.86-0.99-2.19-0.99-3.99V56.44
			c-0.88,0.28-1.85,0.49-2.91,0.63c-1.06,0.14-2.17,0.21-3.33,0.21c-1.2,0-2.44-0.06-3.72-0.18v1.26c1.76,0,2.96,0.43,3.6,1.29
			s0.96,2.19,0.96,3.99v12.42c0,3.04-0.76,5.61-2.28,7.71s-3.46,3.15-5.82,3.15c-1.44,0-2.48-0.32-3.12-0.96s-1.04-1.48-1.2-2.52
			c-0.16-1.04-0.24-2.18-0.24-3.42V56.44c-0.88,0.28-1.85,0.49-2.91,0.63c-1.06,0.14-2.17,0.21-3.33,0.21
			c-1.2,0-2.44-0.06-3.72-0.18v1.26c1.76,0,2.96,0.43,3.6,1.29s0.96,2.19,0.96,3.99V78.7c0,1.88,0.14,3.46,0.42,4.74
			c0.28,1.28,0.8,2.32,1.56,3.12c0.68,0.72,1.54,1.28,2.58,1.68C344.88,88.64,346.1,88.84,347.5,88.84z M316.18,87.64
			c-2.28,0-4.15-1.17-5.61-3.51c-1.46-2.34-2.19-6.19-2.19-11.55s0.73-9.22,2.19-11.58s3.33-3.54,5.61-3.54
			c2.28,0,4.15,1.18,5.61,3.54c1.46,2.36,2.19,6.22,2.19,11.58s-0.73,9.21-2.19,11.55C320.33,86.47,318.46,87.64,316.18,87.64z
			 M316.18,88.84c2.56,0,4.86-0.56,6.9-1.68c2.04-1.12,3.67-2.87,4.89-5.25c1.22-2.38,1.83-5.49,1.83-9.33s-0.61-6.96-1.83-9.36
			c-1.22-2.4-2.85-4.16-4.89-5.28c-2.04-1.12-4.34-1.68-6.9-1.68c-2.52,0-4.81,0.56-6.87,1.68s-3.7,2.88-4.92,5.28
			c-1.22,2.4-1.83,5.52-1.83,9.36s0.61,6.95,1.83,9.33c1.22,2.38,2.86,4.13,4.92,5.25C311.37,88.28,313.66,88.84,316.18,88.84z
			 M281.92,87.46c-1.56,0-3.08-0.39-4.56-1.17c-0.789-0.416-1.51-0.949-2.163-1.598l-0.178-0.182V65.442l0.079-0.31
			c0.477-1.781,1.213-3.235,2.209-4.361l0.203-0.221c1.58-1.66,3.29-2.49,5.13-2.49c1.68,0,3.06,0.53,4.14,1.59
			c1.08,1.06,1.88,2.67,2.4,4.83s0.78,4.86,0.78,8.1c0,5.08-0.67,8.83-2.01,11.25C286.61,86.25,284.6,87.46,281.92,87.46z
			 M270.22,88.96c0.56-0.48,1.1-0.94,1.62-1.38c0.52-0.44,1.05-0.89,1.59-1.35c0.18-0.153,0.359-0.306,0.537-0.457l0.5-0.424
			l0.186,0.201c0.498,0.523,1.049,0.985,1.651,1.385l0.306,0.195c1.86,1.14,3.79,1.71,5.79,1.71c2.4,0,4.62-0.6,6.66-1.8
			s3.67-3.01,4.89-5.43c1.22-2.42,1.83-5.43,1.83-9.03c0-5.48-1.08-9.57-3.24-12.27c-2.16-2.7-4.88-4.05-8.16-4.05
			c-2.68,0-4.99,0.94-6.93,2.82c-0.97,0.94-1.753,2.07-2.348,3.39l-0.083,0.191l0.001-21.641c-0.733,0.233-1.529,0.418-2.388,0.554
			l-0.523,0.076c-1.06,0.14-2.17,0.21-3.33,0.21c-1.2,0-2.44-0.06-3.72-0.18v1.26c1.76,0,2.96,0.43,3.6,1.29
			c0.64,0.86,0.96,2.19,0.96,3.99v36.84c0,0.6-0.03,1.19-0.09,1.77c-0.06,0.58-0.17,1.15-0.33,1.71L270.22,88.96z M246.22,86.02
			c-1.36,0-2.5-0.45-3.42-1.35s-1.38-2.27-1.38-4.11c0-1.96,0.48-3.47,1.44-4.53c0.96-1.06,2.11-1.9,3.45-2.52
			c1.34-0.62,2.64-1.19,3.9-1.71c1.26-0.52,2.19-1.22,2.79-2.1v11.76c-1,1.64-2.08,2.81-3.24,3.51
			C248.6,85.67,247.42,86.02,246.22,86.02z M258.16,88.42c1.28,0,2.3-0.21,3.06-0.63c0.76-0.42,1.56-0.95,2.4-1.59l-0.66-1.02
			c-0.4,0.36-0.81,0.66-1.23,0.9c-0.42,0.24-0.91,0.36-1.47,0.36c-0.68,0-1.16-0.23-1.44-0.69c-0.28-0.46-0.42-1.17-0.42-2.13V66.94
			c0-1.92-0.16-3.57-0.48-4.95c-0.32-1.38-1-2.55-2.04-3.51c-0.76-0.72-1.72-1.27-2.88-1.65s-2.56-0.57-4.2-0.57
			c-1.84,0-3.49,0.23-4.95,0.69c-1.46,0.46-2.65,1.01-3.57,1.65c-0.8,0.56-1.46,1.16-1.98,1.8c-0.52,0.64-0.78,1.48-0.78,2.52
			c0,0.92,0.27,1.75,0.81,2.49c0.54,0.74,1.39,1.11,2.55,1.11c1,0,1.82-0.29,2.46-0.87c0.64-0.58,0.96-1.37,0.96-2.37
			s-0.28-1.82-0.84-2.46c-0.56-0.64-1.22-1.04-1.98-1.2c0.68-0.88,1.59-1.46,2.73-1.74c1.14-0.28,2.21-0.42,3.21-0.42
			c1.04,0,1.98,0.15,2.82,0.45c0.84,0.3,1.51,0.89,2.01,1.77c0.5,0.88,0.75,2.16,0.75,3.84v3.72c0,0.92-0.41,1.68-1.23,2.28
			s-1.87,1.14-3.15,1.62c-1.28,0.48-2.63,0.97-4.05,1.47s-2.77,1.1-4.05,1.8c-1.28,0.7-2.33,1.6-3.15,2.7s-1.23,2.49-1.23,4.17
			c0,2.16,0.59,3.89,1.77,5.19c1.18,1.3,3.07,1.95,5.67,1.95c1.76,0,3.45-0.36,5.07-1.08c1.62-0.72,3.07-2.14,4.35-4.26
			c0,1.4,0.34,2.64,1.02,3.72C254.7,87.88,256.08,88.42,258.16,88.42z M194.935,68.016c0.339-3.539,1.164-6.158,2.475-7.856
			c1.42-1.84,3.05-2.76,4.89-2.76c1.36,0,2.47,0.5,3.33,1.5s1.49,2.33,1.89,3.99c0.4,1.66,0.56,3.47,0.48,5.43h-13.093
			L194.935,68.016z M202.78,88.84c2,0,3.76-0.39,5.28-1.17c1.52-0.78,2.78-1.79,3.78-3.03c1-1.24,1.72-2.52,2.16-3.84l-1.2-0.48
			c-1.04,2.24-2.32,3.8-3.84,4.68c-1.52,0.88-3.18,1.32-4.98,1.32c-1.52,0-2.99-0.51-4.41-1.53s-2.57-2.51-3.45-4.47
			s-1.32-4.3-1.32-7.02c0-0.72,0.02-1.44,0.06-2.16c0.04-0.72,0.1-1.38,0.18-1.98l-0.038,0.3h18.758
			c0-4.364-0.923-7.619-2.769-9.764l-0.201-0.226c-1.98-2.14-4.73-3.21-8.25-3.21c-2.72,0-5.1,0.69-7.14,2.07
			c-2.04,1.38-3.62,3.34-4.74,5.88c-1.12,2.54-1.68,5.57-1.68,9.09c0,3.04,0.55,5.73,1.65,8.07c1.1,2.34,2.68,4.17,4.74,5.49
			C197.43,88.18,199.9,88.84,202.78,88.84z M177.88,88.84c2.44,0,4.25-0.8,5.43-2.4s1.97-3.56,2.37-5.88l-1.2-0.3
			c-0.64,2.32-1.4,3.97-2.28,4.95s-1.92,1.47-3.12,1.47s-2.14-0.38-2.82-1.14c-0.68-0.76-1.02-2.08-1.02-3.96V58.36h8.88v-1.2h-8.88
			V47.14c-0.76,0.28-1.6,0.48-2.52,0.6c-0.92,0.12-1.88,0.2-2.88,0.24v9.18h-5.76v1.2h5.76v20.1c0,2.12,0.17,3.82,0.51,5.1
			c0.34,1.28,0.95,2.38,1.83,3.3c0.68,0.64,1.46,1.13,2.34,1.47S176.52,88.84,177.88,88.84z M146.26,87.64
			c-2.28,0-4.15-1.17-5.61-3.51c-1.46-2.34-2.19-6.19-2.19-11.55s0.73-9.22,2.19-11.58c1.46-2.36,3.33-3.54,5.61-3.54
			c2.28,0,4.15,1.18,5.61,3.54s2.19,6.22,2.19,11.58s-0.73,9.21-2.19,11.55C150.41,86.47,148.54,87.64,146.26,87.64z M146.26,88.84
			c2.56,0,4.86-0.56,6.9-1.68c2.04-1.12,3.67-2.87,4.89-5.25c1.22-2.38,1.83-5.49,1.83-9.33s-0.61-6.96-1.83-9.36
			c-1.22-2.4-2.85-4.16-4.89-5.28c-2.04-1.12-4.34-1.68-6.9-1.68c-2.52,0-4.81,0.56-6.87,1.68s-3.7,2.88-4.92,5.28
			c-1.22,2.4-1.83,5.52-1.83,9.36s0.61,6.95,1.83,9.33c1.22,2.38,2.86,4.13,4.92,5.25C141.45,88.28,143.74,88.84,146.26,88.84z
			 M107.56,88.84c1.92,0,3.79-0.55,5.61-1.65s3.23-2.95,4.23-5.55v7.08c0.88-0.32,1.85-0.54,2.91-0.66s2.17-0.18,3.33-0.18
			c1.24,0,2.48,0.06,3.72,0.18V86.8c-1.72,0-2.91-0.43-3.57-1.29c-0.66-0.86-0.99-2.19-0.99-3.99V56.44
			c-0.88,0.28-1.85,0.49-2.91,0.63c-1.06,0.14-2.17,0.21-3.33,0.21c-1.2,0-2.44-0.06-3.72-0.18v1.26c1.76,0,2.96,0.43,3.6,1.29
			s0.96,2.19,0.96,3.99v12.42c0,3.04-0.76,5.61-2.28,7.71s-3.46,3.15-5.82,3.15c-1.44,0-2.48-0.32-3.12-0.96s-1.04-1.48-1.2-2.52
			c-0.16-1.04-0.24-2.18-0.24-3.42V56.44c-0.88,0.28-1.85,0.49-2.91,0.63c-1.06,0.14-2.17,0.21-3.33,0.21
			c-1.2,0-2.44-0.06-3.72-0.18v1.26c1.76,0,2.96,0.43,3.6,1.29s0.96,2.19,0.96,3.99V78.7c0,1.88,0.14,3.46,0.42,4.74
			c0.28,1.28,0.8,2.32,1.56,3.12c0.68,0.72,1.54,1.28,2.58,1.68C104.94,88.64,106.16,88.84,107.56,88.84z M70.66,87.76
			c-2.44,0-4.67-0.85-6.69-2.55c-2.02-1.7-3.62-4.12-4.8-7.26c-1.18-3.14-1.77-6.83-1.77-11.07c0-4.16,0.53-7.82,1.59-10.98
			c1.06-3.16,2.55-5.64,4.47-7.44c1.92-1.8,4.18-2.7,6.78-2.7c2.48,0,4.72,0.85,6.72,2.55c2,1.7,3.59,4.11,4.77,7.23
			s1.77,6.82,1.77,11.1c0,4.12-0.53,7.77-1.59,10.95c-1.06,3.18-2.55,5.67-4.47,7.47C75.52,86.86,73.26,87.76,70.66,87.76z
			 M82.12,99.28c2.04,0,3.71-0.28,5.01-0.84s2.33-1.18,3.09-1.86c0.8-0.72,1.51-1.63,2.13-2.73s1.17-2.47,1.65-4.11l-0.9-0.36
			c-0.88,1.8-2.15,3.12-3.81,3.96c-1.66,0.84-3.93,1.26-6.81,1.26c-1.56,0-3.44-0.16-5.64-0.48c-2.2-0.32-4.48-0.7-6.84-1.14
			s-4.54-0.86-6.54-1.26c1.2-0.36,2.24-0.74,3.12-1.14s1.76-0.77,2.64-1.11c0.88-0.34,1.92-0.57,3.12-0.69l-0.003-0.027l0.45-0.046
			c2.615-0.302,5-1.118,7.156-2.447l0.378-0.24c2.88-1.88,5.13-4.5,6.75-7.86c1.62-3.36,2.43-7.28,2.43-11.76
			c0-4.6-0.79-8.51-2.37-11.73c-1.58-3.22-3.8-5.69-6.66-7.41c-2.86-1.72-6.19-2.58-9.99-2.58c-3.72,0-7.01,0.94-9.87,2.82
			s-5.11,4.5-6.75,7.86c-1.64,3.36-2.46,7.28-2.46,11.76c0,4.56,0.79,8.46,2.37,11.7c1.58,3.24,3.8,5.72,6.66,7.44
			c2.238,1.346,4.764,2.165,7.578,2.458l0.112,0.011l-0.649,0.267c-0.542,0.227-1.077,0.462-1.605,0.705L65.08,90.07
			c-1.04,0.5-2.28,0.95-3.72,1.35c-1.6-0.32-3.1-0.48-4.5-0.48c-2.16,0-3.24,0.42-3.24,1.26c0,0.4,0.26,0.7,0.78,0.9
			c0.52,0.2,1.18,0.3,1.98,0.3s1.64-0.08,2.52-0.24c0.88-0.16,1.7-0.38,2.46-0.66c0.2,0.04,0.42,0.1,0.66,0.18
			c0.24,0.08,0.5,0.16,0.78,0.24c2.56,0.84,4.9,1.76,7.02,2.76s4.17,1.85,6.15,2.55C77.95,98.93,80,99.28,82.12,99.28z M40.06,59.8
			c1.04,0,1.94-0.36,2.7-1.08c0.76-0.72,1.14-1.64,1.14-2.76c0-1.2-0.38-2.14-1.14-2.82c-0.76-0.68-1.66-1.02-2.7-1.02
			c-0.84,0-1.58,0.26-2.22,0.78c-0.12-0.36-0.18-0.78-0.18-1.26c0-1.16,0.45-2.3,1.35-3.42c0.9-1.12,1.97-1.94,3.21-2.46l-0.54-1.08
			c-2.12,1-3.68,2.3-4.68,3.9s-1.5,3.38-1.5,5.34c0,0.48,0.06,1.1,0.18,1.86c0.12,0.76,0.4,1.46,0.84,2.1
			c0.36,0.56,0.82,1.02,1.38,1.38C38.46,59.62,39.18,59.8,40.06,59.8z M29.86,59.8c1.04,0,1.94-0.36,2.7-1.08
			c0.76-0.72,1.14-1.64,1.14-2.76c0-1.2-0.38-2.14-1.14-2.82c-0.76-0.68-1.66-1.02-2.7-1.02c-0.84,0-1.58,0.26-2.22,0.78
			c-0.12-0.36-0.18-0.78-0.18-1.26c0-1.16,0.45-2.3,1.35-3.42c0.9-1.12,1.97-1.94,3.21-2.46l-0.54-1.08c-2.12,1-3.68,2.3-4.68,3.9
			s-1.5,3.38-1.5,5.34c0,0.48,0.06,1.1,0.18,1.86c0.12,0.76,0.4,1.46,0.84,2.1c0.36,0.56,0.82,1.02,1.38,1.38
			C28.26,59.62,28.98,59.8,29.86,59.8z"/>
	</defs>
	<clipPath id="SVGID_2_">
		<use xlink:href="#SVGID_1_"  overflow="visible"/>
	</clipPath>
	<g clip-path="url(#SVGID_2_)">
		<defs>
			<rect id="SVGID_3_" x="21" y="23" width="752" height="374"/>
		</defs>
		<clipPath id="SVGID_4_">
			<use xlink:href="#SVGID_3_"  overflow="visible"/>
		</clipPath>
		<rect x="20.88" y="40.02" clip-path="url(#SVGID_4_)" fill="#111111" width="728.24" height="345.448"/>
	</g>
</g>
</svg>
